<?xml version="1.0" encoding="UTF-8" standalone="no"?>
<!-- Generator: Adobe Illustrator 13.0.0, SVG Export Plug-In . SVG Version: 6.00 Build 14948)  -->

<svg
   xmlns:dc="http://purl.org/dc/elements/1.1/"
   xmlns:cc="http://creativecommons.org/ns#"
   xmlns:rdf="http://www.w3.org/1999/02/22-rdf-syntax-ns#"
   xmlns:svg="http://www.w3.org/2000/svg"
   xmlns="http://www.w3.org/2000/svg"
   xmlns:xlink="http://www.w3.org/1999/xlink"
   xmlns:sodipodi="http://sodipodi.sourceforge.net/DTD/sodipodi-0.dtd"
   xmlns:inkscape="http://www.inkscape.org/namespaces/inkscape"
   version="1.1"
   id="Layer_1"
   x="0px"
   y="0px"
   width="128px"
   height="100px"
   viewBox="0 0 128 100"
   enable-background="new 0 0 128 100"
   xml:space="preserve"
   inkscape:version="0.47 r22583"
   sodipodi:docname="enlarge.svg"
   inkscape:export-xdpi="89.036407"
   inkscape:export-ydpi="89.036407"><metadata
   id="metadata68"><rdf:RDF><cc:Work
       rdf:about=""><dc:format>image/svg+xml</dc:format><dc:type
         rdf:resource="http://purl.org/dc/dcmitype/StillImage" /><dc:title></dc:title></cc:Work></rdf:RDF></metadata><sodipodi:namedview
   pagecolor="#ffffff"
   bordercolor="#666666"
   borderopacity="1"
   objecttolerance="10"
   gridtolerance="10"
   guidetolerance="10"
   inkscape:pageopacity="0"
   inkscape:pageshadow="2"
   inkscape:window-width="1680"
   inkscape:window-height="993"
   id="namedview66"
   showgrid="false"
   inkscape:zoom="2.535779"
   inkscape:cx="61.887526"
   inkscape:cy="71.849862"
   inkscape:window-x="0"
   inkscape:window-y="0"
   inkscape:window-maximized="1"
   inkscape:current-layer="Layer_1" />
<defs
   id="defs3"><inkscape:perspective
   sodipodi:type="inkscape:persp3d"
   inkscape:vp_x="0 : 50 : 1"
   inkscape:vp_y="0 : 1000 : 0"
   inkscape:vp_z="128 : 50 : 1"
   inkscape:persp3d-origin="64 : 33.333333 : 1"
   id="perspective70" />
<filter
   id="Gaussian_Blur">
<feGaussianBlur
   in="SourceGraphic"
   stdDeviation="2"
   id="feGaussianBlur6" />
</filter>
<linearGradient
   inkscape:collect="always"
   xlink:href="#SVGID_1_"
   id="linearGradient2907"
   gradientUnits="userSpaceOnUse"
   gradientTransform="matrix(1,0,0,-1,-156,-197)"
   x1="215.7656"
   y1="-278.127"
   x2="222.8434"
   y2="-212.7417" /><linearGradient
   inkscape:collect="always"
   xlink:href="#SVGID_2_"
   id="linearGradient2909"
   gradientUnits="userSpaceOnUse"
   gradientTransform="matrix(1,0,0,-1,-156,-197)"
   x1="186.625"
   y1="-258.7021"
   x2="186.625"
   y2="-248.506" /><linearGradient
   inkscape:collect="always"
   xlink:href="#SVGID_3_"
   id="linearGradient2911"
   gradientUnits="userSpaceOnUse"
   gradientTransform="matrix(1,0,0,-1,-156,-197)"
   x1="237.3691"
   y1="-274.5654"
   x2="237.3691"
   y2="-223.0167" /><linearGradient
   inkscape:collect="always"
   xlink:href="#SVGID_4_"
   id="linearGradient2913"
   gradientUnits="userSpaceOnUse"
   gradientTransform="matrix(1,0,0,-1,-156,-197)"
   x1="199.0293"
   y1="-265.7773"
   x2="278.4434"
   y2="-265.7773" /><linearGradient
   inkscape:collect="always"
   xlink:href="#SVGID_5_"
   id="linearGradient2915"
   gradientUnits="userSpaceOnUse"
   gradientTransform="matrix(1,0,0,-1,-156,-197)"
   x1="183.9668"
   y1="-253.4766"
   x2="183.9668"
   y2="-250.6126" /><linearGradient
   inkscape:collect="always"
   xlink:href="#SVGID_6_"
   id="linearGradient2917"
   gradientUnits="userSpaceOnUse"
   gradientTransform="matrix(0.9448,-0.3275,-0.3275,-0.9448,-130.0903,-201.9744)"
   x1="116.0586"
   y1="-316.2344"
   x2="116.0586"
   y2="-313.3705" /><linearGradient
   inkscape:collect="always"
   xlink:href="#SVGID_1_"
   id="linearGradient2919"
   gradientUnits="userSpaceOnUse"
   gradientTransform="matrix(1,0,0,-1,-156,-197)"
   x1="215.7656"
   y1="-278.127"
   x2="222.8434"
   y2="-212.7417" /><linearGradient
   inkscape:collect="always"
   xlink:href="#SVGID_2_"
   id="linearGradient2921"
   gradientUnits="userSpaceOnUse"
   gradientTransform="matrix(1,0,0,-1,-156,-197)"
   x1="186.625"
   y1="-258.7021"
   x2="186.625"
   y2="-248.506" /><linearGradient
   inkscape:collect="always"
   xlink:href="#SVGID_3_"
   id="linearGradient2923"
   gradientUnits="userSpaceOnUse"
   gradientTransform="matrix(1,0,0,-1,-156,-197)"
   x1="237.3691"
   y1="-274.5654"
   x2="237.3691"
   y2="-223.0167" /><linearGradient
   inkscape:collect="always"
   xlink:href="#SVGID_4_"
   id="linearGradient2925"
   gradientUnits="userSpaceOnUse"
   gradientTransform="matrix(1,0,0,-1,-156,-197)"
   x1="199.0293"
   y1="-265.7773"
   x2="278.4434"
   y2="-265.7773" /><linearGradient
   inkscape:collect="always"
   xlink:href="#SVGID_5_"
   id="linearGradient2927"
   gradientUnits="userSpaceOnUse"
   gradientTransform="matrix(1,0,0,-1,-156,-197)"
   x1="183.9668"
   y1="-253.4766"
   x2="183.9668"
   y2="-250.6126" /><linearGradient
   inkscape:collect="always"
   xlink:href="#SVGID_6_"
   id="linearGradient2929"
   gradientUnits="userSpaceOnUse"
   gradientTransform="matrix(0.9448,-0.3275,-0.3275,-0.9448,-130.0903,-201.9744)"
   x1="116.0586"
   y1="-316.2344"
   x2="116.0586"
   y2="-313.3705" /><linearGradient
   inkscape:collect="always"
   xlink:href="#SVGID_6_"
   id="linearGradient2932"
   gradientUnits="userSpaceOnUse"
   gradientTransform="matrix(0.9448,-0.3275,-0.3275,-0.9448,-130.0903,-201.9744)"
   x1="116.0586"
   y1="-316.2344"
   x2="116.0586"
   y2="-313.3705" /><linearGradient
   inkscape:collect="always"
   xlink:href="#SVGID_5_"
   id="linearGradient2935"
   gradientUnits="userSpaceOnUse"
   gradientTransform="matrix(1,0,0,-1,-156,-197)"
   x1="183.9668"
   y1="-253.4766"
   x2="183.9668"
   y2="-250.6126" /><linearGradient
   inkscape:collect="always"
   xlink:href="#SVGID_4_"
   id="linearGradient2939"
   gradientUnits="userSpaceOnUse"
   gradientTransform="matrix(1,0,0,-1,-156,-197)"
   x1="199.0293"
   y1="-265.7773"
   x2="278.4434"
   y2="-265.7773" /><linearGradient
   inkscape:collect="always"
   xlink:href="#SVGID_3_"
   id="linearGradient2942"
   gradientUnits="userSpaceOnUse"
   gradientTransform="matrix(1,0,0,-1,-156,-197)"
   x1="237.3691"
   y1="-274.5654"
   x2="237.3691"
   y2="-223.0167" /><linearGradient
   inkscape:collect="always"
   xlink:href="#SVGID_2_"
   id="linearGradient2946"
   gradientUnits="userSpaceOnUse"
   gradientTransform="matrix(1,0,0,-1,-156,-197)"
   x1="186.625"
   y1="-258.7021"
   x2="186.625"
   y2="-248.506" /><linearGradient
   inkscape:collect="always"
   xlink:href="#SVGID_1_"
   id="linearGradient2949"
   gradientUnits="userSpaceOnUse"
   gradientTransform="matrix(1,0,0,-1,-156,-197)"
   x1="215.7656"
   y1="-278.127"
   x2="222.8434"
   y2="-212.7417" /><linearGradient
   inkscape:collect="always"
   xlink:href="#SVGID_1_"
   id="linearGradient2983"
   gradientUnits="userSpaceOnUse"
   gradientTransform="matrix(1,0,0,-1,-156,-197)"
   x1="215.7656"
   y1="-278.127"
   x2="222.8434"
   y2="-212.7417" /><linearGradient
   inkscape:collect="always"
   xlink:href="#SVGID_2_"
   id="linearGradient2985"
   gradientUnits="userSpaceOnUse"
   gradientTransform="matrix(1,0,0,-1,-156,-197)"
   x1="186.625"
   y1="-258.7021"
   x2="186.625"
   y2="-248.506" /><linearGradient
   inkscape:collect="always"
   xlink:href="#SVGID_3_"
   id="linearGradient2987"
   gradientUnits="userSpaceOnUse"
   gradientTransform="matrix(1,0,0,-1,-156,-197)"
   x1="237.3691"
   y1="-274.5654"
   x2="237.3691"
   y2="-223.0167" /><linearGradient
   inkscape:collect="always"
   xlink:href="#SVGID_4_"
   id="linearGradient2989"
   gradientUnits="userSpaceOnUse"
   gradientTransform="matrix(1,0,0,-1,-156,-197)"
   x1="199.0293"
   y1="-265.7773"
   x2="278.4434"
   y2="-265.7773" /><linearGradient
   inkscape:collect="always"
   xlink:href="#SVGID_5_"
   id="linearGradient2991"
   gradientUnits="userSpaceOnUse"
   gradientTransform="matrix(1,0,0,-1,-156,-197)"
   x1="183.9668"
   y1="-253.4766"
   x2="183.9668"
   y2="-250.6126" /><linearGradient
   inkscape:collect="always"
   xlink:href="#SVGID_6_"
   id="linearGradient2993"
   gradientUnits="userSpaceOnUse"
   gradientTransform="matrix(0.9448,-0.3275,-0.3275,-0.9448,-130.0903,-201.9744)"
   x1="116.0586"
   y1="-316.2344"
   x2="116.0586"
   y2="-313.3705" /><linearGradient
   inkscape:collect="always"
   xlink:href="#SVGID_1_"
   id="linearGradient2995"
   gradientUnits="userSpaceOnUse"
   gradientTransform="matrix(1,0,0,-1,-156,-197)"
   x1="215.7656"
   y1="-278.127"
   x2="222.8434"
   y2="-212.7417" /><linearGradient
   inkscape:collect="always"
   xlink:href="#SVGID_2_"
   id="linearGradient2997"
   gradientUnits="userSpaceOnUse"
   gradientTransform="matrix(1,0,0,-1,-156,-197)"
   x1="186.625"
   y1="-258.7021"
   x2="186.625"
   y2="-248.506" /><linearGradient
   inkscape:collect="always"
   xlink:href="#SVGID_3_"
   id="linearGradient2999"
   gradientUnits="userSpaceOnUse"
   gradientTransform="matrix(1,0,0,-1,-156,-197)"
   x1="237.3691"
   y1="-274.5654"
   x2="237.3691"
   y2="-223.0167" /><linearGradient
   inkscape:collect="always"
   xlink:href="#SVGID_4_"
   id="linearGradient3001"
   gradientUnits="userSpaceOnUse"
   gradientTransform="matrix(1,0,0,-1,-156,-197)"
   x1="199.0293"
   y1="-265.7773"
   x2="278.4434"
   y2="-265.7773" /><linearGradient
   inkscape:collect="always"
   xlink:href="#SVGID_5_"
   id="linearGradient3003"
   gradientUnits="userSpaceOnUse"
   gradientTransform="matrix(1,0,0,-1,-156,-197)"
   x1="183.9668"
   y1="-253.4766"
   x2="183.9668"
   y2="-250.6126" /><linearGradient
   inkscape:collect="always"
   xlink:href="#SVGID_6_"
   id="linearGradient3005"
   gradientUnits="userSpaceOnUse"
   gradientTransform="matrix(0.9448,-0.3275,-0.3275,-0.9448,-130.0903,-201.9744)"
   x1="116.0586"
   y1="-316.2344"
   x2="116.0586"
   y2="-313.3705" /><linearGradient
   inkscape:collect="always"
   xlink:href="#SVGID_6_"
   id="linearGradient2916"
   gradientUnits="userSpaceOnUse"
   gradientTransform="matrix(0.43649702,-0.89965196,-0.89965196,-0.43649702,-253.59943,9.3461845)"
   x1="116.0586"
   y1="-316.2344"
   x2="116.0586"
   y2="-313.3705" /><linearGradient
   inkscape:collect="always"
   xlink:href="#SVGID_5_"
   id="linearGradient2920"
   gradientUnits="userSpaceOnUse"
   gradientTransform="matrix(0.6480068,-0.76163454,-0.76163454,-0.6480068,-272.34044,54.760951)"
   x1="183.9668"
   y1="-253.4766"
   x2="183.9668"
   y2="-250.6126" /><linearGradient
   inkscape:collect="always"
   xlink:href="#SVGID_4_"
   id="linearGradient2924"
   gradientUnits="userSpaceOnUse"
   gradientTransform="matrix(0.70710678,-0.70710678,-0.70710678,-0.70710678,-268.40292,31.184541)"
   x1="199.0293"
   y1="-265.7773"
   x2="278.4434"
   y2="-265.7773" /><linearGradient
   inkscape:collect="always"
   xlink:href="#SVGID_3_"
   id="linearGradient2928"
   gradientUnits="userSpaceOnUse"
   gradientTransform="matrix(0.70710678,-0.70710678,-0.70710678,-0.70710678,-268.40292,31.184541)"
   x1="237.3691"
   y1="-274.5654"
   x2="237.3691"
   y2="-223.0167" /><linearGradient
   inkscape:collect="always"
   xlink:href="#SVGID_2_"
   id="linearGradient2933"
   gradientUnits="userSpaceOnUse"
   gradientTransform="matrix(0.70710678,-0.70710678,-0.70710678,-0.70710678,-268.40292,31.184541)"
   x1="186.625"
   y1="-258.7021"
   x2="186.625"
   y2="-248.506" /><linearGradient
   inkscape:collect="always"
   xlink:href="#SVGID_1_"
   id="linearGradient2936"
   gradientUnits="userSpaceOnUse"
   gradientTransform="matrix(0.70710678,-0.70710678,-0.70710678,-0.70710678,-268.40292,31.184541)"
   x1="215.7656"
   y1="-278.127"
   x2="222.8434"
   y2="-212.7417" /><inkscape:perspective
   id="perspective5665"
   inkscape:persp3d-origin="0.5 : 0.33333333 : 1"
   inkscape:vp_z="1 : 0.5 : 1"
   inkscape:vp_y="0 : 1000 : 0"
   inkscape:vp_x="0 : 0.5 : 1"
   sodipodi:type="inkscape:persp3d" /><filter
   color-interpolation-filters="sRGB"
   inkscape:menu-tooltip="Invert hue, or rotate it"
   inkscape:menu="Color"
   inkscape:label="Invert hue"
   inkscape:collect="always"
   x="0"
   width="1"
   y="0"
   height="1"
   id="filter14439"><feGaussianBlur
     result="fbSourceGraphic"
     inkscape:collect="always"
     stdDeviation="0.75974255"
     id="feGaussianBlur14441" /><feColorMatrix
     id="feColorMatrix3397"
     values="0 0 0 -1 0 0 0 0 -1 0 0 0 0 -1 0 0 0 0 1 0"
     in="fbSourceGraphic"
     result="fbSourceGraphicAlpha" /><feColorMatrix
     result="result2"
     type="saturate"
     in="fbSourceGraphic"
     values="1"
     id="feColorMatrix3399" /><feFlood
     result="result1"
     flood-opacity="1"
     flood-color="rgb(254,102,0)"
     id="feFlood3401" /><feBlend
     result="result3"
     in="result1"
     mode="multiply"
     in2="result2"
     id="feBlend3403" /><feComposite
     result="fbSourceGraphic"
     operator="in"
     in2="fbSourceGraphic"
     id="feComposite3405" /><feColorMatrix
     id="feColorMatrix3833"
     values="0 0 0 -1 0 0 0 0 -1 0 0 0 0 -1 0 0 0 0 1 0"
     in="fbSourceGraphic"
     result="fbSourceGraphicAlpha" /><feColorMatrix
     in="fbSourceGraphic"
     result="result1"
     values="180"
     type="hueRotate"
     id="feColorMatrix3835" /></filter><linearGradient
   inkscape:collect="always"
   xlink:href="#linearGradient5529-745-407-319"
   id="linearGradient10409-600-632-838-311-698-368-717"
   gradientUnits="userSpaceOnUse"
   gradientTransform="matrix(0.9090532,0,0,0.9903033,4.701138,59.40002)"
   x1="11"
   y1="17"
   x2="11"
   y2="-3" /><linearGradient
   id="linearGradient5529-745-407-319"><stop
     style="stop-color:#efeef0;stop-opacity:1"
     offset="0"
     id="stop3519" /><stop
     style="stop-color:#dedede;stop-opacity:0.58536583;"
     offset="1"
     id="stop3521" /></linearGradient><filter
   color-interpolation-filters="sRGB"
   height="1"
   width="1"
   y="0"
   x="0"
   inkscape:menu-tooltip="Invert hue, or rotate it"
   inkscape:menu="Color"
   inkscape:label="Invert hue"
   id="filter3407"><feColorMatrix
     result="result2"
     type="saturate"
     in="SourceGraphic"
     values="1"
     id="feColorMatrix3409" /><feFlood
     result="result1"
     flood-opacity="1"
     flood-color="rgb(254,102,0)"
     id="feFlood3411" /><feBlend
     result="result3"
     in="result1"
     mode="multiply"
     in2="result2"
     id="feBlend3413" /><feComposite
     result="fbSourceGraphic"
     operator="in"
     in2="SourceGraphic"
     id="feComposite3415" /><feColorMatrix
     id="feColorMatrix3837"
     values="0 0 0 -1 0 0 0 0 -1 0 0 0 0 -1 0 0 0 0 1 0"
     in="fbSourceGraphic"
     result="fbSourceGraphicAlpha" /><feColorMatrix
     in="fbSourceGraphic"
     result="result1"
     values="180"
     type="hueRotate"
     id="feColorMatrix3839" /></filter><filter
   color-interpolation-filters="sRGB"
   inkscape:collect="always"
   id="filter5653"><feGaussianBlur
     inkscape:collect="always"
     stdDeviation="0.58666667"
     id="feGaussianBlur5655" /></filter><linearGradient
   inkscape:collect="always"
   xlink:href="#linearGradient5529-745-407-319-872-776-106-98"
   id="linearGradient5451"
   gradientUnits="userSpaceOnUse"
   gradientTransform="matrix(1.4375,0,0,1.5624999,99.591836,-9.4024292)"
   x1="11"
   y1="17"
   x2="11"
   y2="-3" /><linearGradient
   id="linearGradient5529-745-407-319-872-776-106-98"><stop
     style="stop-color:#febdfe;stop-opacity:1;"
     offset="0"
     id="stop4481" /><stop
     style="stop-color:#90bcff;stop-opacity:0.53658539;"
     offset="1"
     id="stop4483" /></linearGradient><filter
   color-interpolation-filters="sRGB"
   height="1"
   width="1"
   y="0"
   x="0"
   inkscape:menu-tooltip="Invert hue, or rotate it"
   inkscape:menu="Color"
   inkscape:label="Invert hue"
   id="filter3427"><feColorMatrix
     result="result2"
     type="saturate"
     in="SourceGraphic"
     values="1"
     id="feColorMatrix3429" /><feFlood
     result="result1"
     flood-opacity="1"
     flood-color="rgb(254,102,0)"
     id="feFlood3431" /><feBlend
     result="result3"
     in="result1"
     mode="multiply"
     in2="result2"
     id="feBlend3433" /><feComposite
     result="fbSourceGraphic"
     operator="in"
     in2="SourceGraphic"
     id="feComposite3435" /><feColorMatrix
     id="feColorMatrix3845"
     values="0 0 0 -1 0 0 0 0 -1 0 0 0 0 -1 0 0 0 0 1 0"
     in="fbSourceGraphic"
     result="fbSourceGraphicAlpha" /><feColorMatrix
     in="fbSourceGraphic"
     result="result1"
     values="180"
     type="hueRotate"
     id="feColorMatrix3847" /></filter><radialGradient
   inkscape:collect="always"
   xlink:href="#linearGradient5619"
   id="radialGradient5625"
   cx="20.866453"
   cy="19.4904"
   fx="20.866453"
   fy="19.4904"
   r="7.2724257"
   gradientTransform="matrix(3.7826637,0,0,4.1207538,-49.082034,-69.29251)"
   gradientUnits="userSpaceOnUse" /><linearGradient
   id="linearGradient5619"><stop
     style="stop-color:#002666;stop-opacity:0.58536583;"
     offset="0"
     id="stop5621" /><stop
     style="stop-color:#002666;stop-opacity:0;"
     offset="1"
     id="stop5623" /></linearGradient><filter
   color-interpolation-filters="sRGB"
   inkscape:menu-tooltip="Invert hue, or rotate it"
   inkscape:menu="Color"
   inkscape:label="Invert hue"
   inkscape:collect="always"
   x="0"
   width="1"
   y="0"
   height="1"
   id="filter14439-5"><feGaussianBlur
     result="fbSourceGraphic"
     inkscape:collect="always"
     stdDeviation="0.75974255"
     id="feGaussianBlur14441-9" /><feColorMatrix
     id="feColorMatrix3397-1"
     values="0 0 0 -1 0 0 0 0 -1 0 0 0 0 -1 0 0 0 0 1 0"
     in="fbSourceGraphic"
     result="fbSourceGraphicAlpha" /><feColorMatrix
     result="result2"
     type="saturate"
     in="fbSourceGraphic"
     values="1"
     id="feColorMatrix3399-7" /><feFlood
     result="result1"
     flood-opacity="1"
     flood-color="rgb(254,102,0)"
     id="feFlood3401-7" /><feBlend
     result="result3"
     in="result1"
     mode="multiply"
     in2="result2"
     id="feBlend3403-4" /><feComposite
     result="fbSourceGraphic"
     operator="in"
     in2="fbSourceGraphic"
     id="feComposite3405-1" /><feColorMatrix
     id="feColorMatrix3833-1"
     values="0 0 0 -1 0 0 0 0 -1 0 0 0 0 -1 0 0 0 0 1 0"
     in="fbSourceGraphic"
     result="fbSourceGraphicAlpha" /><feColorMatrix
     in="fbSourceGraphic"
     result="result1"
     values="180"
     type="hueRotate"
     id="feColorMatrix3835-9" /></filter><filter
   color-interpolation-filters="sRGB"
   height="1"
   width="1"
   y="0"
   x="0"
   inkscape:menu-tooltip="Invert hue, or rotate it"
   inkscape:menu="Color"
   inkscape:label="Invert hue"
   id="filter3367"><feColorMatrix
     result="result2"
     type="saturate"
     in="SourceGraphic"
     values="1"
     id="feColorMatrix3369" /><feFlood
     result="result1"
     flood-opacity="1"
     flood-color="rgb(254,102,0)"
     id="feFlood3371" /><feBlend
     result="result3"
     in="result1"
     mode="multiply"
     in2="result2"
     id="feBlend3373" /><feComposite
     result="fbSourceGraphic"
     operator="in"
     in2="SourceGraphic"
     id="feComposite3375" /><feColorMatrix
     id="feColorMatrix3821"
     values="0 0 0 -1 0 0 0 0 -1 0 0 0 0 -1 0 0 0 0 1 0"
     in="fbSourceGraphic"
     result="fbSourceGraphicAlpha" /><feColorMatrix
     in="fbSourceGraphic"
     result="result1"
     values="180"
     type="hueRotate"
     id="feColorMatrix3823" /></filter><filter
   color-interpolation-filters="sRGB"
   height="1"
   width="1"
   y="0"
   x="0"
   inkscape:menu-tooltip="Invert hue, or rotate it"
   inkscape:menu="Color"
   inkscape:label="Invert hue"
   id="filter3377"><feColorMatrix
     result="result2"
     type="saturate"
     in="SourceGraphic"
     values="1"
     id="feColorMatrix3379" /><feFlood
     result="result1"
     flood-opacity="1"
     flood-color="rgb(254,102,0)"
     id="feFlood3381" /><feBlend
     result="result3"
     in="result1"
     mode="multiply"
     in2="result2"
     id="feBlend3383" /><feComposite
     result="fbSourceGraphic"
     operator="in"
     in2="SourceGraphic"
     id="feComposite3385" /><feColorMatrix
     id="feColorMatrix3825"
     values="0 0 0 -1 0 0 0 0 -1 0 0 0 0 -1 0 0 0 0 1 0"
     in="fbSourceGraphic"
     result="fbSourceGraphicAlpha" /><feColorMatrix
     in="fbSourceGraphic"
     result="result1"
     values="180"
     type="hueRotate"
     id="feColorMatrix3827" /></filter><filter
   color-interpolation-filters="sRGB"
   height="1"
   width="1"
   y="0"
   x="0"
   inkscape:menu-tooltip="Invert hue, or rotate it"
   inkscape:menu="Color"
   inkscape:label="Invert hue"
   id="filter3387"><feColorMatrix
     result="result2"
     type="saturate"
     in="SourceGraphic"
     values="1"
     id="feColorMatrix3389" /><feFlood
     result="result1"
     flood-opacity="1"
     flood-color="rgb(254,102,0)"
     id="feFlood3391" /><feBlend
     result="result3"
     in="result1"
     mode="multiply"
     in2="result2"
     id="feBlend3393" /><feComposite
     result="fbSourceGraphic"
     operator="in"
     in2="SourceGraphic"
     id="feComposite3395" /><feColorMatrix
     id="feColorMatrix3829"
     values="0 0 0 -1 0 0 0 0 -1 0 0 0 0 -1 0 0 0 0 1 0"
     in="fbSourceGraphic"
     result="fbSourceGraphicAlpha" /><feColorMatrix
     in="fbSourceGraphic"
     result="result1"
     values="180"
     type="hueRotate"
     id="feColorMatrix3831" /></filter><linearGradient
   inkscape:collect="always"
   xlink:href="#SVGID_1_"
   id="linearGradient5917"
   gradientUnits="userSpaceOnUse"
   gradientTransform="matrix(0.70710678,-0.70710678,-0.70710678,-0.70710678,-268.40292,31.184541)"
   x1="215.7656"
   y1="-278.127"
   x2="222.8434"
   y2="-212.7417" /><linearGradient
   inkscape:collect="always"
   xlink:href="#SVGID_2_"
   id="linearGradient5919"
   gradientUnits="userSpaceOnUse"
   gradientTransform="matrix(0.70710678,-0.70710678,-0.70710678,-0.70710678,-268.40292,31.184541)"
   x1="186.625"
   y1="-258.7021"
   x2="186.625"
   y2="-248.506" /><linearGradient
   inkscape:collect="always"
   xlink:href="#SVGID_3_"
   id="linearGradient5921"
   gradientUnits="userSpaceOnUse"
   gradientTransform="matrix(0.70710678,-0.70710678,-0.70710678,-0.70710678,-268.40292,31.184541)"
   x1="237.3691"
   y1="-274.5654"
   x2="237.3691"
   y2="-223.0167" /><linearGradient
   inkscape:collect="always"
   xlink:href="#SVGID_4_"
   id="linearGradient5923"
   gradientUnits="userSpaceOnUse"
   gradientTransform="matrix(0.70710678,-0.70710678,-0.70710678,-0.70710678,-268.40292,31.184541)"
   x1="199.0293"
   y1="-265.7773"
   x2="278.4434"
   y2="-265.7773" /><linearGradient
   inkscape:collect="always"
   xlink:href="#SVGID_5_"
   id="linearGradient5925"
   gradientUnits="userSpaceOnUse"
   gradientTransform="matrix(0.6480068,-0.76163454,-0.76163454,-0.6480068,-272.34044,54.760951)"
   x1="183.9668"
   y1="-253.4766"
   x2="183.9668"
   y2="-250.6126" /><linearGradient
   inkscape:collect="always"
   xlink:href="#SVGID_6_"
   id="linearGradient5927"
   gradientUnits="userSpaceOnUse"
   gradientTransform="matrix(0.43649702,-0.89965196,-0.89965196,-0.43649702,-253.59943,9.3461845)"
   x1="116.0586"
   y1="-316.2344"
   x2="116.0586"
   y2="-313.3705" /><linearGradient
   inkscape:collect="always"
   xlink:href="#linearGradient5529-745-407-319"
   id="linearGradient5951"
   gradientUnits="userSpaceOnUse"
   gradientTransform="matrix(0.9090532,0,0,0.9903033,4.701138,59.40002)"
   x1="11"
   y1="17"
   x2="11"
   y2="-3" /><linearGradient
   inkscape:collect="always"
   xlink:href="#linearGradient5529-745-407-319-872-776-106-98"
   id="linearGradient5953"
   gradientUnits="userSpaceOnUse"
   gradientTransform="matrix(1.4375,0,0,1.5624999,99.591836,-9.4024292)"
   x1="11"
   y1="17"
   x2="11"
   y2="-3" /><radialGradient
   inkscape:collect="always"
   xlink:href="#linearGradient5619"
   id="radialGradient5955"
   gradientUnits="userSpaceOnUse"
   gradientTransform="matrix(3.7826637,0,0,4.1207538,-49.082034,-69.29251)"
   cx="20.866453"
   cy="19.4904"
   fx="20.866453"
   fy="19.4904"
   r="7.2724257" /><linearGradient
   inkscape:collect="always"
   xlink:href="#SVGID_1_"
   id="linearGradient5957"
   gradientUnits="userSpaceOnUse"
   gradientTransform="matrix(0.70710678,-0.70710678,-0.70710678,-0.70710678,-268.40292,31.184541)"
   x1="215.7656"
   y1="-278.127"
   x2="222.8434"
   y2="-212.7417" /><linearGradient
   inkscape:collect="always"
   xlink:href="#SVGID_2_"
   id="linearGradient5959"
   gradientUnits="userSpaceOnUse"
   gradientTransform="matrix(0.70710678,-0.70710678,-0.70710678,-0.70710678,-268.40292,31.184541)"
   x1="186.625"
   y1="-258.7021"
   x2="186.625"
   y2="-248.506" /><linearGradient
   inkscape:collect="always"
   xlink:href="#SVGID_3_"
   id="linearGradient5961"
   gradientUnits="userSpaceOnUse"
   gradientTransform="matrix(0.70710678,-0.70710678,-0.70710678,-0.70710678,-268.40292,31.184541)"
   x1="237.3691"
   y1="-274.5654"
   x2="237.3691"
   y2="-223.0167" /><linearGradient
   inkscape:collect="always"
   xlink:href="#SVGID_4_"
   id="linearGradient5963"
   gradientUnits="userSpaceOnUse"
   gradientTransform="matrix(0.70710678,-0.70710678,-0.70710678,-0.70710678,-268.40292,31.184541)"
   x1="199.0293"
   y1="-265.7773"
   x2="278.4434"
   y2="-265.7773" /><linearGradient
   inkscape:collect="always"
   xlink:href="#SVGID_5_"
   id="linearGradient5965"
   gradientUnits="userSpaceOnUse"
   gradientTransform="matrix(0.6480068,-0.76163454,-0.76163454,-0.6480068,-272.34044,54.760951)"
   x1="183.9668"
   y1="-253.4766"
   x2="183.9668"
   y2="-250.6126" /><linearGradient
   inkscape:collect="always"
   xlink:href="#SVGID_6_"
   id="linearGradient5967"
   gradientUnits="userSpaceOnUse"
   gradientTransform="matrix(0.43649702,-0.89965196,-0.89965196,-0.43649702,-253.59943,9.3461845)"
   x1="116.0586"
   y1="-316.2344"
   x2="116.0586"
   y2="-313.3705" /><linearGradient
   inkscape:collect="always"
   xlink:href="#linearGradient5529-745-407-319-872-776-106-98"
   id="linearGradient5995"
   gradientUnits="userSpaceOnUse"
   gradientTransform="matrix(1.4375,0,0,1.5624999,99.591836,-9.4024292)"
   x1="11"
   y1="17"
   x2="11"
   y2="-3" /><radialGradient
   inkscape:collect="always"
   xlink:href="#linearGradient5619"
   id="radialGradient5997"
   gradientUnits="userSpaceOnUse"
   gradientTransform="matrix(3.7826637,0,0,4.1207538,-49.082034,-69.29251)"
   cx="20.866453"
   cy="19.4904"
   fx="20.866453"
   fy="19.4904"
   r="7.2724257" /><linearGradient
   inkscape:collect="always"
   xlink:href="#linearGradient5529-745-407-319"
   id="linearGradient6004"
   gradientUnits="userSpaceOnUse"
   gradientTransform="matrix(0.9090532,0,0,0.9903033,4.701138,59.40002)"
   x1="11"
   y1="17"
   x2="11"
   y2="-3" /><linearGradient
   inkscape:collect="always"
   xlink:href="#SVGID_1_"
   id="linearGradient6030"
   gradientUnits="userSpaceOnUse"
   gradientTransform="matrix(0.70710678,-0.70710678,-0.70710678,-0.70710678,-268.40292,31.184541)"
   x1="215.7656"
   y1="-278.127"
   x2="222.8434"
   y2="-212.7417" /><linearGradient
   inkscape:collect="always"
   xlink:href="#SVGID_2_"
   id="linearGradient6032"
   gradientUnits="userSpaceOnUse"
   gradientTransform="matrix(0.70710678,-0.70710678,-0.70710678,-0.70710678,-268.40292,31.184541)"
   x1="186.625"
   y1="-258.7021"
   x2="186.625"
   y2="-248.506" /><linearGradient
   inkscape:collect="always"
   xlink:href="#SVGID_3_"
   id="linearGradient6034"
   gradientUnits="userSpaceOnUse"
   gradientTransform="matrix(0.70710678,-0.70710678,-0.70710678,-0.70710678,-268.40292,31.184541)"
   x1="237.3691"
   y1="-274.5654"
   x2="237.3691"
   y2="-223.0167" /><linearGradient
   inkscape:collect="always"
   xlink:href="#SVGID_4_"
   id="linearGradient6036"
   gradientUnits="userSpaceOnUse"
   gradientTransform="matrix(0.70710678,-0.70710678,-0.70710678,-0.70710678,-268.40292,31.184541)"
   x1="199.0293"
   y1="-265.7773"
   x2="278.4434"
   y2="-265.7773" /><linearGradient
   inkscape:collect="always"
   xlink:href="#SVGID_5_"
   id="linearGradient6038"
   gradientUnits="userSpaceOnUse"
   gradientTransform="matrix(0.6480068,-0.76163454,-0.76163454,-0.6480068,-272.34044,54.760951)"
   x1="183.9668"
   y1="-253.4766"
   x2="183.9668"
   y2="-250.6126" /><linearGradient
   inkscape:collect="always"
   xlink:href="#SVGID_6_"
   id="linearGradient6040"
   gradientUnits="userSpaceOnUse"
   gradientTransform="matrix(0.43649702,-0.89965196,-0.89965196,-0.43649702,-253.59943,9.3461845)"
   x1="116.0586"
   y1="-316.2344"
   x2="116.0586"
   y2="-313.3705" /><linearGradient
   inkscape:collect="always"
   xlink:href="#linearGradient5529-745-407-319"
   id="linearGradient6064"
   gradientUnits="userSpaceOnUse"
   gradientTransform="matrix(0.9090532,0,0,0.9903033,4.701138,59.40002)"
   x1="11"
   y1="17"
   x2="11"
   y2="-3" /><linearGradient
   inkscape:collect="always"
   xlink:href="#linearGradient5529-745-407-319-872-776-106-98"
   id="linearGradient6066"
   gradientUnits="userSpaceOnUse"
   gradientTransform="matrix(1.4375,0,0,1.5624999,99.591836,-9.4024292)"
   x1="11"
   y1="17"
   x2="11"
   y2="-3" /><radialGradient
   inkscape:collect="always"
   xlink:href="#linearGradient5619"
   id="radialGradient6068"
   gradientUnits="userSpaceOnUse"
   gradientTransform="matrix(3.7826637,0,0,4.1207538,-49.082034,-69.29251)"
   cx="20.866453"
   cy="19.4904"
   fx="20.866453"
   fy="19.4904"
   r="7.2724257" /><linearGradient
   inkscape:collect="always"
   xlink:href="#SVGID_1_"
   id="linearGradient6070"
   gradientUnits="userSpaceOnUse"
   gradientTransform="matrix(0.70710678,-0.70710678,-0.70710678,-0.70710678,-268.40292,31.184541)"
   x1="215.7656"
   y1="-278.127"
   x2="222.8434"
   y2="-212.7417" /><linearGradient
   inkscape:collect="always"
   xlink:href="#SVGID_2_"
   id="linearGradient6072"
   gradientUnits="userSpaceOnUse"
   gradientTransform="matrix(0.70710678,-0.70710678,-0.70710678,-0.70710678,-268.40292,31.184541)"
   x1="186.625"
   y1="-258.7021"
   x2="186.625"
   y2="-248.506" /><linearGradient
   inkscape:collect="always"
   xlink:href="#SVGID_3_"
   id="linearGradient6074"
   gradientUnits="userSpaceOnUse"
   gradientTransform="matrix(0.70710678,-0.70710678,-0.70710678,-0.70710678,-268.40292,31.184541)"
   x1="237.3691"
   y1="-274.5654"
   x2="237.3691"
   y2="-223.0167" /><linearGradient
   inkscape:collect="always"
   xlink:href="#SVGID_4_"
   id="linearGradient6076"
   gradientUnits="userSpaceOnUse"
   gradientTransform="matrix(0.70710678,-0.70710678,-0.70710678,-0.70710678,-268.40292,31.184541)"
   x1="199.0293"
   y1="-265.7773"
   x2="278.4434"
   y2="-265.7773" /><linearGradient
   inkscape:collect="always"
   xlink:href="#SVGID_5_"
   id="linearGradient6078"
   gradientUnits="userSpaceOnUse"
   gradientTransform="matrix(0.6480068,-0.76163454,-0.76163454,-0.6480068,-272.34044,54.760951)"
   x1="183.9668"
   y1="-253.4766"
   x2="183.9668"
   y2="-250.6126" /><linearGradient
   inkscape:collect="always"
   xlink:href="#SVGID_6_"
   id="linearGradient6080"
   gradientUnits="userSpaceOnUse"
   gradientTransform="matrix(0.43649702,-0.89965196,-0.89965196,-0.43649702,-253.59943,9.3461845)"
   x1="116.0586"
   y1="-316.2344"
   x2="116.0586"
   y2="-313.3705" /></defs>

<linearGradient
   id="SVGID_1_"
   gradientUnits="userSpaceOnUse"
   x1="215.7656"
   y1="-278.127"
   x2="222.8434"
   y2="-212.7417"
   gradientTransform="matrix(1 0 0 -1 -156 -197)">
	<stop
   offset="0"
   style="stop-color:#20ABFF"
   id="stop11" />
	<stop
   offset="0.5838"
   style="stop-color:#1572DE"
   id="stop13" />
	<stop
   offset="0.8528"
   style="stop-color:#0938BC"
   id="stop15" />
</linearGradient>

<linearGradient
   id="SVGID_2_"
   gradientUnits="userSpaceOnUse"
   x1="186.625"
   y1="-258.7021"
   x2="186.625"
   y2="-248.506"
   gradientTransform="matrix(1 0 0 -1 -156 -197)">
	<stop
   offset="0"
   style="stop-color:#20D4FF"
   id="stop20" />
	<stop
   offset="1"
   style="stop-color:#20ADFF"
   id="stop22" />
</linearGradient>


<linearGradient
   id="SVGID_3_"
   gradientUnits="userSpaceOnUse"
   x1="237.3691"
   y1="-274.5654"
   x2="237.3691"
   y2="-223.0167"
   gradientTransform="matrix(1 0 0 -1 -156 -197)">
	<stop
   offset="0"
   style="stop-color:#3AEFFF"
   id="stop29" />
	<stop
   offset="0.5482"
   style="stop-color:#20ABFF"
   id="stop31" />
	<stop
   offset="0.619"
   style="stop-color:#1EA1F9"
   id="stop33" />
	<stop
   offset="0.7399"
   style="stop-color:#1986E9"
   id="stop35" />
	<stop
   offset="0.8955"
   style="stop-color:#105AD0"
   id="stop37" />
	<stop
   offset="1"
   style="stop-color:#0938BC"
   id="stop39" />
</linearGradient>

<linearGradient
   id="SVGID_4_"
   gradientUnits="userSpaceOnUse"
   x1="199.0293"
   y1="-265.7773"
   x2="278.4434"
   y2="-265.7773"
   gradientTransform="matrix(1 0 0 -1 -156 -197)">
	<stop
   offset="0"
   style="stop-color:#20ABFF"
   id="stop44" />
	<stop
   offset="1"
   style="stop-color:#2057D9"
   id="stop46" />
</linearGradient>


<linearGradient
   id="SVGID_5_"
   gradientUnits="userSpaceOnUse"
   x1="183.9668"
   y1="-253.4766"
   x2="183.9668"
   y2="-250.6126"
   gradientTransform="matrix(1 0 0 -1 -156 -197)">
	<stop
   offset="0"
   style="stop-color:#A3E0FF"
   id="stop53" />
	<stop
   offset="1"
   style="stop-color:#FFFFFF"
   id="stop55" />
</linearGradient>

<linearGradient
   id="SVGID_6_"
   gradientUnits="userSpaceOnUse"
   x1="116.0586"
   y1="-316.2344"
   x2="116.0586"
   y2="-313.3705"
   gradientTransform="matrix(0.9448 -0.3275 -0.3275 -0.9448 -130.0903 -201.9744)">
	<stop
   offset="0"
   style="stop-color:#A3E0FF"
   id="stop60" />
	<stop
   offset="1"
   style="stop-color:#FFFFFF"
   id="stop62" />
</linearGradient>

<g
   id="g6042"
   transform="matrix(1.0651211,0,0,1.0651211,0.62843267,-5.1008585)"><g
     transform="matrix(1.1888512,0,0,1.1888512,2.2969046,-23.482855)"
     id="g5999"><rect
       ry="2.5891218"
       rx="4.5531244"
       y="62.553825"
       x="7.3489914"
       height="15.844851"
       width="14.544851"
       id="rect12353"
       style="color:#000000;fill:#002666;fill-opacity:1;fill-rule:nonzero;stroke:#003aa2;stroke-width:0;stroke-linecap:butt;stroke-linejoin:miter;stroke-miterlimit:10.43299961;stroke-opacity:1;stroke-dasharray:none;stroke-dashoffset:0;marker:none;visibility:visible;display:inline;overflow:visible;filter:url(#filter14439);enable-background:accumulate"
       transform="matrix(1.5167508,0,0,1.5167508,-2.0225679,-18.643342)" /><rect
       ry="0.95069116"
       rx="0.94857728"
       y="61.875774"
       x="6.9737701"
       height="15.844851"
       width="14.544851"
       id="rect10377"
       style="color:#000000;fill:url(#linearGradient6064);fill-opacity:1;fill-rule:nonzero;stroke:none;stroke-width:1;marker:none;visibility:visible;display:inline;overflow:visible;filter:url(#filter3407);enable-background:accumulate"
       transform="matrix(1.5167508,0,0,1.5167508,-2.0225679,-18.643342)" /><path
       style="fill:#d2e1f7;fill-opacity:0.47263686;stroke:none"
       d="m 22.87957,76.573425 c -1.115932,-0.518112 -11.95642,-0.677529 -11.95642,0 0,0.677531 -2.0923733,1.514481 0,2.032592 2.092374,0.518112 10.402084,0.219201 12.55424,1.076078 2.152156,0.856877 0.298911,2.271721 0.358694,4.065183 0.05978,1.793462 -0.856877,5.599589 0,6.695594 0.856876,1.096005 4.423875,1.673898 5.14126,-0.119565 0.717385,-1.793464 0.179345,-8.349565 -0.836951,-10.641212 -1.016296,-2.291646 -4.14489,-2.590558 -5.260823,-3.10867 z"
       id="path5401"
       sodipodi:nodetypes="czzzzzzzz" /></g><g
     transform="matrix(1.1969868,0,0,1.1969868,-37.318464,6.3833792)"
     id="g5989"><rect
       style="color:#000000;fill:#000000;fill-opacity:0.29207925;fill-rule:nonzero;stroke:none;stroke-width:0.99999982;marker:none;visibility:visible;display:inline;overflow:visible;filter:url(#filter5653);enable-background:accumulate"
       id="rect5629"
       width="23"
       height="25"
       x="104.58483"
       y="-4.9500346"
       rx="1.5"
       ry="1.5"
       transform="matrix(2.2080436,0,0,2.2080436,-161.927,15.267894)" /><rect
       ry="1.5"
       rx="1.5"
       y="-5.496181"
       x="103.18559"
       height="25"
       width="23"
       id="rect10411"
       style="color:#000000;fill:url(#linearGradient6066);fill-opacity:1;fill-rule:nonzero;stroke:none;stroke-width:0.99999982;marker:none;visibility:visible;display:inline;overflow:visible;filter:url(#filter3427);enable-background:accumulate"
       transform="matrix(2.2080436,0,0,2.2080436,-161.927,15.267894)" /><rect
       ry="2.5891218"
       rx="4.5531244"
       y="11.022634"
       x="13.670662"
       height="15.844851"
       width="14.544851"
       id="rect12353-1"
       style="color:#000000;fill:url(#radialGradient6068);fill-opacity:1;fill-rule:nonzero;stroke:#003aa2;stroke-width:0;stroke-linecap:butt;stroke-linejoin:miter;stroke-miterlimit:10.43299961;stroke-opacity:1;stroke-dasharray:none;stroke-dashoffset:0;marker:none;visibility:visible;display:inline;overflow:visible;filter:url(#filter14439-5);enable-background:accumulate"
       transform="matrix(3.3039886,0,0,3.3039886,20.986088,-30.791404)" /><path
       style="fill:#d2e1f7;fill-opacity:0.47263686;stroke:none"
       d="m 100.88082,7.125699 c -2.321499,-1.0778379 -24.873197,-1.4094823 -24.873197,0 0,1.4094809 -4.352806,3.150603 0,4.228441 4.352802,1.07784 21.639673,0.45601 26.116857,2.238592 4.47719,1.78258 0.62182,4.72591 0.74621,8.456885 0.12431,3.730983 -1.78258,11.648952 0,13.928992 1.78257,2.28004 9.20308,3.482243 10.69547,-0.248734 1.49237,-3.730979 0.3731,-17.369778 -1.74113,-22.137143 C 109.7108,8.8253673 103.2023,8.2035388 100.88082,7.125699 z"
       id="path5401-7"
       sodipodi:nodetypes="czzzzzzzz" /></g><g
     transform="matrix(0.93786286,0,0,0.93786286,0.18135213,6.60556)"
     id="g6018"><path
       enable-background="new    "
       d="m 75.53125,49.656254 c -4.95396,0.138709 -9.892321,0.576193 -14.806335,1.210645 -4.710483,0.525617 -9.377012,1.503731 -14.128356,1.594935 -5.726016,0.149929 -11.447936,-0.272321 -17.172162,-0.372592 -6.690675,-0.173591 -5.272014,-1.951908 -11.963028,-1.670522 -1.145653,-0.01241 -2.250452,0.365809 -3.12901,1.106573 -1.481959,1.248991 -2.855833,2.675002 -3.87099,4.330927 -0.447795,0.636173 -0.554264,1.543543 0.25,1.9375 1.463525,0.628294 3.108066,0.153122 4.646864,0.21875 4.768571,-0.08875 1.454154,2.135862 5.927843,3.816589 6.565097,2.049427 12.961886,4.609925 19.575327,6.508548 1.067032,0.345798 2.134065,0.691595 3.201097,1.037393 0.975697,0.857279 0.506044,2.28129 0.170961,3.3327 -1.093181,3.937605 -1.636156,8.110547 -0.920961,12.1673 0.362295,1.669861 1.955894,3.138621 3.73924,2.812077 2.006493,-0.14292 3.82945,-1.095439 5.745981,-1.621531 9.328969,-3.354228 18.623729,-6.8031 27.951748,-10.160288 12.295,-4.535099 24.627641,-8.973606 36.884491,-13.608515 1.58477,-0.733663 3.64853,-1.072052 4.49104,-2.796743 0.33578,-1.02282 -0.71107,-1.763997 -1.5625,-2.03125 -4.05084,-1.507968 -8.23927,-2.613017 -12.40625,-3.75 -10.208724,-2.496807 -20.68177,-4.167421 -31.214022,-4.090166 -0.470326,0.0092 -0.940652,0.01844 -1.410978,0.02767 z"
       style="opacity:0.5;fill:#000000;stroke:#000000;stroke-width:0;filter:url(#Gaussian_Blur)"
       id="path8"
       transform="matrix(0.57586741,-0.57586741,0.57586741,0.57586741,-12.742445,60.036717)"
       sodipodi:nodetypes="cccccsccccccccccccccccc" /><g
       id="g5907"
       transform="matrix(0.68612276,0,0,0.68612276,12.978578,18.621224)"><path
         sodipodi:nodetypes="ccccscscscssccccccc"
         id="path17"
         d="m 38.497068,45.522108 c 4.548101,2.062616 4.29028,4.252786 5.40376,5.887099 -3.329015,4.898306 -8.39997,11.849287 -11.722497,16.750906 -1.760504,2.602948 -3.67915,5.089986 -5.721222,7.477514 -2.738873,3.316648 -5.477746,6.633295 -8.216618,9.949942 -0.958799,1.7878 0.0027,3.797912 0.685009,5.502175 1.000552,2.41173 2.695467,3.511056 4.098598,5.733608 0.993566,0.826703 2.503423,0.181979 3.18198,-0.751301 4.017647,-3.866732 7.445888,-6.051608 12.418441,-8.628623 6.689984,-3.791378 13.695364,-6.983562 20.451388,-10.6505 0.949594,-0.555956 1.96942,-0.131308 2.675922,0.587566 1.278595,1.152688 2.252931,2.598566 3.565359,3.72017 1.960398,2.021195 3.854733,4.110065 5.934216,6.011602 1.423762,0.862518 3.438933,0.05801 4.02167,-1.458408 3.151582,-4.951392 5.113519,-10.517233 7.710832,-15.755538 8.261652,-17.823418 16.503779,-35.655865 24.727694,-53.49673 0.5492,-1.659982 -0.58524,-3.270713 -1.81197,-4.286835 C 103.50861,9.5561747 100.96343,7.1461604 98.364528,4.8006193 64.226441,15.047091 36.238758,41.515445 38.497068,45.522108 z"
         style="fill:url(#linearGradient6070)" /><path
         id="path24"
         d="m 24.361384,88.880035 c -0.977587,1.081574 -2.031185,2.60292 -1.37002,4.110058 0.513276,0.945849 0.664306,2.263651 1.74567,2.762136 1.436213,0.167305 2.259874,-1.27186 3.249649,-2.046838 2.497687,-2.34225 5.273845,-4.422409 8.306486,-6.019597 3.894728,-1.867612 7.9875,-3.335842 11.736431,-5.505423 5.263409,-2.991583 10.088686,-6.664955 15.112171,-10.027831 0.655431,-0.959658 -0.374915,-1.909637 -0.640148,-2.822272 -1.282093,-3.386921 -2.703099,-6.718837 -4.044434,-10.082427 -1.017358,-0.621011 -1.586757,0.813301 -2.21252,1.353575 -5.048336,4.674558 -10.024977,9.438316 -15.389513,13.754626 -4.727541,4.015194 -9.428881,8.061916 -14.08519,12.159605 -0.827313,0.763447 -1.660615,1.520947 -2.408582,2.364388 z"
         style="fill:url(#linearGradient6072)" /><path
         sodipodi:nodetypes="ccccsscsccccccc"
         id="path26"
         d="m 23.683816,94.687949 c 0.07267,1.158375 1.552522,2.065942 2.552142,1.336905 3.622723,-3.964664 19.337352,-11.900353 30.846118,-18.158264 1.001118,-0.493488 1.969516,-1.130401 3.015576,-1.48796 1.352434,0.01275 2.216735,1.240622 3.299348,1.87388 2.098565,1.535766 4.013568,3.345633 6.213608,4.725499 0.859128,0.349365 1.861433,0.435699 2.723551,0.0463 0.600032,-0.904696 -0.324051,-1.841445 -0.901642,-2.480727 -2.771357,-3.075474 -3.940422,-7.206884 -6.545076,-10.401875 -0.907881,-0.734099 -2.163122,-0.104128 -2.894718,0.596622 -6.930832,4.5764 -14.05648,8.850425 -21.190778,13.099647 -3.094837,1.686107 -6.011743,3.667908 -8.894842,5.688122 -2.201058,1.561669 -3.86568,2.802149 -5.688487,4.78651 -0.969093,0.886064 0.270494,0.240005 -1.164781,0.375341 -0.475574,0.359802 -1.068418,-0.544454 -1.370019,0 z"
         style="fill:#20bfff" /><path
         sodipodi:nodetypes="cccscc"
         id="path41"
         d="m 42.458898,38.741745 c -0.413878,1.74243 -0.677179,3.524149 -1.104855,5.259106 0.03566,1.346656 1.373933,2.07944 2.045649,3.10961 9.92472,11.941819 19.849438,23.883639 29.774157,35.825457 10.429825,-21.655145 20.85965,-43.31029 31.289471,-64.965435 0.26567,-1.008734 -0.93154,-2.097788 -1.87825,-1.524699 -9.911529,3.282007 -19.873446,6.427186 -29.633445,10.146113 -9.105834,3.455028 -18.102608,7.19096 -27.225668,10.601891 -1.030094,0.398134 -2.060188,0.796269 -3.090282,1.194403 -0.05892,0.117854 -0.117854,0.2357 -0.176777,0.353554 z"
         style="fill:url(#linearGradient6074)" /><path
         sodipodi:nodetypes="cssscccc"
         id="path48"
         d="m 105.56818,11.960075 c 0.39494,1.429527 0.15563,2.937165 -0.46404,4.264738 -1.20539,3.047981 -2.69924,5.97249 -4.00723,8.977213 C 93.780541,41.17654 86.575383,57.202 79.15588,73.129117 c -1.706749,3.688779 -3.413496,7.377557 -5.120245,11.066335 -0.652063,0.524374 -1.243488,1.729813 -0.397748,2.342292 1.009221,0.649677 1.985807,-0.488281 2.242754,-1.40295 1.416421,-3.001841 2.944219,-5.949842 4.301766,-8.980039 5.021738,-10.668729 9.914058,-21.397747 14.908918,-32.07911 4.325243,-9.312783 8.649115,-18.62619 12.973825,-27.93922 0.43611,-1.469909 -0.68759,-2.781528 -1.60385,-3.796865 -0.20906,-0.269315 -1.3943,-1.575607 -0.89312,-0.379485 z"
         style="fill:url(#linearGradient6076)" /><path
         sodipodi:nodetypes="cscssssccscccccccccccc"
         id="path50"
         d="m 39.565349,43.753312 c -0.551295,0.741068 1.558485,1.488759 2.107542,2.024795 2.054207,2.31644 -0.112272,0.322272 1.868764,2.708453 0.491523,0.873726 1.683971,1.565785 1.635185,2.607456 -0.388201,2.340008 -2.318081,3.946305 -3.499486,5.891921 -4.931466,7.113234 -9.428681,14.544322 -14.854186,21.303203 -2.03149,2.523878 -4.438078,4.709538 -6.682328,7.033264 -0.684531,0.86898 -0.329223,1.962336 -0.08839,2.916815 0.06347,0.733044 0.665818,1.822352 1.533527,1.376655 1.00827,-0.501079 1.578888,-1.554776 2.463646,-2.227496 3.744862,-3.644736 7.619569,-7.154568 11.315467,-10.849764 4.830419,-4.611302 8.154342,-10.117414 14.015254,-13.384682 5.742687,-4.21213 6.585118,-1.039612 10.756221,3.82789 0.66023,0.749212 1.517075,1.689115 2.607457,1.546796 1.697771,-0.476145 2.335208,-2.315226 3.154724,-3.686947 3.753483,-6.870253 7.281322,-13.868987 10.392693,-21.054625 1.911002,-4.65611 3.633579,-9.392196 4.972081,-14.246633 1.124777,-3.767669 2.103892,-7.576786 2.94224,-11.418637 0.172662,-1.108573 0.621539,-2.227295 0.436329,-3.35594 -0.346484,-0.878129 -1.582018,-0.6904 -2.286831,-0.364066 -3.5408,1.469305 -7.144539,2.79704 -10.626051,4.410789 -11.452331,7.150679 -23.127343,14.760743 -32.163858,24.940753 z"
         enable-background="new    "
         style="opacity:0.6;fill:#ffffff" /><path
         inkscape:transform-center-y="-14.738929"
         inkscape:transform-center-x="-16.58013"
         id="path57"
         d="m 23.742066,90.195896 c -0.452051,0.708426 -1.578153,1.492384 -0.957138,2.427042 1.177724,0.0873 1.580976,-1.26495 2.304588,-1.9371 3.151558,-3.616745 6.626744,-6.938563 10.333481,-9.981472 4.060608,-3.397693 8.215639,-6.682444 12.278562,-10.078402 2.566745,-2.095711 5.114485,-4.22404 7.570187,-6.444985 0.768036,-0.703278 0.574794,-2.394966 -0.59582,-2.48254 -1.255879,-0.07498 -2.028587,1.140848 -2.918706,1.832637 -7.365055,6.608525 -14.948692,12.988261 -21.908234,20.033931 -2.110821,2.139292 -4.235226,4.27455 -6.10692,6.630889 z"
         enable-background="new    "
         style="opacity:0.7;fill:url(#linearGradient6078)" /><path
         id="path64"
         d="M 94.806897,8.2256678 C 88.378981,20.706608 82.694644,33.549625 76.795479,46.284117 c -3.983506,8.563057 -7.652055,17.291104 -12.195046,25.57876 -0.684692,1.082215 -1.397222,2.174996 -1.878507,3.361158 -0.193747,0.908101 0.618805,1.87876 1.568894,1.613088 1.584811,-0.212582 2.428569,-1.722025 3.18198,-2.96101 C 70.156919,69.857081 71.793849,65.278731 73.958829,60.9828 81.894416,44.114662 89.859661,27.260425 97.745809,10.369085 98.06681,9.3382112 98.346194,7.9685793 97.414353,7.1650076 96.427194,6.6479195 95.393217,7.4868416 94.806897,8.2256678 z"
         enable-background="new    "
         style="opacity:0.7;fill:url(#linearGradient6080)" /></g></g></g><g
   style="filter:url(#filter3367)"
   id="layer6"
   inkscape:label="Shadow"
   transform="matrix(0.8375663,0,0,0.8375663,-67.858245,42.717485)" /><g
   style="display:inline;filter:url(#filter3377)"
   inkscape:label="Base"
   id="g5772"
   transform="matrix(0.8375663,0,0,0.8375663,-67.858245,42.717485)" /><g
   id="g2637"
   inkscape:label="base"
   style="display:inline;filter:url(#filter3387)"
   transform="matrix(0.8375663,0,0,0.8375663,-78.422899,82.745852)" /></svg>
