<?xml version="1.0" encoding="UTF-8" standalone="no"?>
<!-- Generator: Adobe Illustrator 13.0.0, SVG Export Plug-In . SVG Version: 6.00 Build 14948)  -->

<svg
   xmlns:dc="http://purl.org/dc/elements/1.1/"
   xmlns:cc="http://creativecommons.org/ns#"
   xmlns:rdf="http://www.w3.org/1999/02/22-rdf-syntax-ns#"
   xmlns:svg="http://www.w3.org/2000/svg"
   xmlns="http://www.w3.org/2000/svg"
   xmlns:xlink="http://www.w3.org/1999/xlink"
   xmlns:sodipodi="http://sodipodi.sourceforge.net/DTD/sodipodi-0.dtd"
   xmlns:inkscape="http://www.inkscape.org/namespaces/inkscape"
   version="1.1"
   id="Layer_1"
   x="0px"
   y="0px"
   width="128px"
   height="100px"
   viewBox="0 0 128 100"
   enable-background="new 0 0 128 100"
   xml:space="preserve"
   inkscape:version="0.47 r22583"
   sodipodi:docname="Left-Right-arrow.svg"><metadata
   id="metadata68"><rdf:RDF><cc:Work
       rdf:about=""><dc:format>image/svg+xml</dc:format><dc:type
         rdf:resource="http://purl.org/dc/dcmitype/StillImage" /><dc:title /></cc:Work></rdf:RDF></metadata><sodipodi:namedview
   pagecolor="#ffffff"
   bordercolor="#666666"
   borderopacity="1"
   objecttolerance="10"
   gridtolerance="10"
   guidetolerance="10"
   inkscape:pageopacity="0"
   inkscape:pageshadow="2"
   inkscape:window-width="1680"
   inkscape:window-height="993"
   id="namedview66"
   showgrid="false"
   inkscape:zoom="1.8210832"
   inkscape:cx="-4.7383853"
   inkscape:cy="134.7445"
   inkscape:window-x="0"
   inkscape:window-y="0"
   inkscape:window-maximized="1"
   inkscape:current-layer="Layer_1"
   showguides="false"
   inkscape:guide-bbox="true"><sodipodi:guide
     orientation="1,0"
     position="50.203052,73.886413"
     id="guide2881" /><sodipodi:guide
     orientation="1,0"
     position="121.13781,105.35438"
     id="guide2975" /><sodipodi:guide
     orientation="0.70710678,0.70710678"
     position="-143.62919,180.32566"
     id="guide4403" /><sodipodi:guide
     orientation="1,0"
     position="0.68640467,264.54036"
     id="guide4529" /></sodipodi:namedview>
<defs
   id="defs3"><inkscape:perspective
   sodipodi:type="inkscape:persp3d"
   inkscape:vp_x="0 : 50 : 1"
   inkscape:vp_y="0 : 1000 : 0"
   inkscape:vp_z="128 : 50 : 1"
   inkscape:persp3d-origin="64 : 33.333333 : 1"
   id="perspective70" />
<filter
   id="Gaussian_Blur">
<feGaussianBlur
   in="SourceGraphic"
   stdDeviation="2"
   id="feGaussianBlur6" />
</filter>
<linearGradient
   inkscape:collect="always"
   xlink:href="#SVGID_1_"
   id="linearGradient2907"
   gradientUnits="userSpaceOnUse"
   gradientTransform="matrix(1,0,0,-1,-156,-197)"
   x1="215.7656"
   y1="-278.127"
   x2="222.8434"
   y2="-212.7417" /><linearGradient
   inkscape:collect="always"
   xlink:href="#SVGID_2_"
   id="linearGradient2909"
   gradientUnits="userSpaceOnUse"
   gradientTransform="matrix(1,0,0,-1,-156,-197)"
   x1="186.625"
   y1="-258.7021"
   x2="186.625"
   y2="-248.506" /><linearGradient
   inkscape:collect="always"
   xlink:href="#SVGID_3_"
   id="linearGradient2911"
   gradientUnits="userSpaceOnUse"
   gradientTransform="matrix(1,0,0,-1,-156,-197)"
   x1="237.3691"
   y1="-274.5654"
   x2="237.3691"
   y2="-223.0167" /><linearGradient
   inkscape:collect="always"
   xlink:href="#SVGID_4_"
   id="linearGradient2913"
   gradientUnits="userSpaceOnUse"
   gradientTransform="matrix(1,0,0,-1,-156,-197)"
   x1="199.0293"
   y1="-265.7773"
   x2="278.4434"
   y2="-265.7773" /><linearGradient
   inkscape:collect="always"
   xlink:href="#SVGID_5_"
   id="linearGradient2915"
   gradientUnits="userSpaceOnUse"
   gradientTransform="matrix(1,0,0,-1,-156,-197)"
   x1="183.9668"
   y1="-253.4766"
   x2="183.9668"
   y2="-250.6126" /><linearGradient
   inkscape:collect="always"
   xlink:href="#SVGID_6_"
   id="linearGradient2917"
   gradientUnits="userSpaceOnUse"
   gradientTransform="matrix(0.9448,-0.3275,-0.3275,-0.9448,-130.0903,-201.9744)"
   x1="116.0586"
   y1="-316.2344"
   x2="116.0586"
   y2="-313.3705" /><linearGradient
   inkscape:collect="always"
   xlink:href="#SVGID_1_"
   id="linearGradient2919"
   gradientUnits="userSpaceOnUse"
   gradientTransform="matrix(1,0,0,-1,-156,-197)"
   x1="215.7656"
   y1="-278.127"
   x2="222.8434"
   y2="-212.7417" /><linearGradient
   inkscape:collect="always"
   xlink:href="#SVGID_2_"
   id="linearGradient2921"
   gradientUnits="userSpaceOnUse"
   gradientTransform="matrix(1,0,0,-1,-156,-197)"
   x1="186.625"
   y1="-258.7021"
   x2="186.625"
   y2="-248.506" /><linearGradient
   inkscape:collect="always"
   xlink:href="#SVGID_3_"
   id="linearGradient2923"
   gradientUnits="userSpaceOnUse"
   gradientTransform="matrix(1,0,0,-1,-156,-197)"
   x1="237.3691"
   y1="-274.5654"
   x2="237.3691"
   y2="-223.0167" /><linearGradient
   inkscape:collect="always"
   xlink:href="#SVGID_4_"
   id="linearGradient2925"
   gradientUnits="userSpaceOnUse"
   gradientTransform="matrix(1,0,0,-1,-156,-197)"
   x1="199.0293"
   y1="-265.7773"
   x2="278.4434"
   y2="-265.7773" /><linearGradient
   inkscape:collect="always"
   xlink:href="#SVGID_5_"
   id="linearGradient2927"
   gradientUnits="userSpaceOnUse"
   gradientTransform="matrix(1,0,0,-1,-156,-197)"
   x1="183.9668"
   y1="-253.4766"
   x2="183.9668"
   y2="-250.6126" /><linearGradient
   inkscape:collect="always"
   xlink:href="#SVGID_6_"
   id="linearGradient2929"
   gradientUnits="userSpaceOnUse"
   gradientTransform="matrix(0.9448,-0.3275,-0.3275,-0.9448,-130.0903,-201.9744)"
   x1="116.0586"
   y1="-316.2344"
   x2="116.0586"
   y2="-313.3705" /><linearGradient
   inkscape:collect="always"
   xlink:href="#SVGID_6_"
   id="linearGradient2932"
   gradientUnits="userSpaceOnUse"
   gradientTransform="matrix(0.9448,-0.3275,-0.3275,-0.9448,-130.0903,-201.9744)"
   x1="116.0586"
   y1="-316.2344"
   x2="116.0586"
   y2="-313.3705" /><linearGradient
   inkscape:collect="always"
   xlink:href="#SVGID_5_"
   id="linearGradient2935"
   gradientUnits="userSpaceOnUse"
   gradientTransform="matrix(1,0,0,-1,-156,-197)"
   x1="183.9668"
   y1="-253.4766"
   x2="183.9668"
   y2="-250.6126" /><linearGradient
   inkscape:collect="always"
   xlink:href="#SVGID_4_"
   id="linearGradient2939"
   gradientUnits="userSpaceOnUse"
   gradientTransform="matrix(1,0,0,-1,-156,-197)"
   x1="199.0293"
   y1="-265.7773"
   x2="278.4434"
   y2="-265.7773" /><linearGradient
   inkscape:collect="always"
   xlink:href="#SVGID_3_"
   id="linearGradient2942"
   gradientUnits="userSpaceOnUse"
   gradientTransform="matrix(1,0,0,-1,-156,-197)"
   x1="237.3691"
   y1="-274.5654"
   x2="237.3691"
   y2="-223.0167" /><linearGradient
   inkscape:collect="always"
   xlink:href="#SVGID_2_"
   id="linearGradient2946"
   gradientUnits="userSpaceOnUse"
   gradientTransform="matrix(1,0,0,-1,-156,-197)"
   x1="186.625"
   y1="-258.7021"
   x2="186.625"
   y2="-248.506" /><linearGradient
   inkscape:collect="always"
   xlink:href="#SVGID_1_"
   id="linearGradient2949"
   gradientUnits="userSpaceOnUse"
   gradientTransform="matrix(1,0,0,-1,-156,-197)"
   x1="215.7656"
   y1="-278.127"
   x2="222.8434"
   y2="-212.7417" /><linearGradient
   inkscape:collect="always"
   xlink:href="#SVGID_1_"
   id="linearGradient2983"
   gradientUnits="userSpaceOnUse"
   gradientTransform="matrix(1,0,0,-1,-156,-197)"
   x1="215.7656"
   y1="-278.127"
   x2="222.8434"
   y2="-212.7417" /><linearGradient
   inkscape:collect="always"
   xlink:href="#SVGID_2_"
   id="linearGradient2985"
   gradientUnits="userSpaceOnUse"
   gradientTransform="matrix(1,0,0,-1,-156,-197)"
   x1="186.625"
   y1="-258.7021"
   x2="186.625"
   y2="-248.506" /><linearGradient
   inkscape:collect="always"
   xlink:href="#SVGID_3_"
   id="linearGradient2987"
   gradientUnits="userSpaceOnUse"
   gradientTransform="matrix(1,0,0,-1,-156,-197)"
   x1="237.3691"
   y1="-274.5654"
   x2="237.3691"
   y2="-223.0167" /><linearGradient
   inkscape:collect="always"
   xlink:href="#SVGID_4_"
   id="linearGradient2989"
   gradientUnits="userSpaceOnUse"
   gradientTransform="matrix(1,0,0,-1,-156,-197)"
   x1="199.0293"
   y1="-265.7773"
   x2="278.4434"
   y2="-265.7773" /><linearGradient
   inkscape:collect="always"
   xlink:href="#SVGID_5_"
   id="linearGradient2991"
   gradientUnits="userSpaceOnUse"
   gradientTransform="matrix(1,0,0,-1,-156,-197)"
   x1="183.9668"
   y1="-253.4766"
   x2="183.9668"
   y2="-250.6126" /><linearGradient
   inkscape:collect="always"
   xlink:href="#SVGID_6_"
   id="linearGradient2993"
   gradientUnits="userSpaceOnUse"
   gradientTransform="matrix(0.9448,-0.3275,-0.3275,-0.9448,-130.0903,-201.9744)"
   x1="116.0586"
   y1="-316.2344"
   x2="116.0586"
   y2="-313.3705" /><linearGradient
   inkscape:collect="always"
   xlink:href="#SVGID_1_"
   id="linearGradient2995"
   gradientUnits="userSpaceOnUse"
   gradientTransform="matrix(1,0,0,-1,-156,-197)"
   x1="215.7656"
   y1="-278.127"
   x2="222.8434"
   y2="-212.7417" /><linearGradient
   inkscape:collect="always"
   xlink:href="#SVGID_2_"
   id="linearGradient2997"
   gradientUnits="userSpaceOnUse"
   gradientTransform="matrix(1,0,0,-1,-156,-197)"
   x1="186.625"
   y1="-258.7021"
   x2="186.625"
   y2="-248.506" /><linearGradient
   inkscape:collect="always"
   xlink:href="#SVGID_3_"
   id="linearGradient2999"
   gradientUnits="userSpaceOnUse"
   gradientTransform="matrix(1,0,0,-1,-156,-197)"
   x1="237.3691"
   y1="-274.5654"
   x2="237.3691"
   y2="-223.0167" /><linearGradient
   inkscape:collect="always"
   xlink:href="#SVGID_4_"
   id="linearGradient3001"
   gradientUnits="userSpaceOnUse"
   gradientTransform="matrix(1,0,0,-1,-156,-197)"
   x1="199.0293"
   y1="-265.7773"
   x2="278.4434"
   y2="-265.7773" /><linearGradient
   inkscape:collect="always"
   xlink:href="#SVGID_5_"
   id="linearGradient3003"
   gradientUnits="userSpaceOnUse"
   gradientTransform="matrix(1,0,0,-1,-156,-197)"
   x1="183.9668"
   y1="-253.4766"
   x2="183.9668"
   y2="-250.6126" /><linearGradient
   inkscape:collect="always"
   xlink:href="#SVGID_6_"
   id="linearGradient3005"
   gradientUnits="userSpaceOnUse"
   gradientTransform="matrix(0.9448,-0.3275,-0.3275,-0.9448,-130.0903,-201.9744)"
   x1="116.0586"
   y1="-316.2344"
   x2="116.0586"
   y2="-313.3705" /><linearGradient
   inkscape:collect="always"
   xlink:href="#SVGID_1_"
   id="linearGradient2978"
   gradientUnits="userSpaceOnUse"
   gradientTransform="matrix(1,0,0,-1,-156,-197)"
   x1="215.7656"
   y1="-278.127"
   x2="222.8434"
   y2="-212.7417" /><linearGradient
   inkscape:collect="always"
   xlink:href="#SVGID_2_"
   id="linearGradient2980"
   gradientUnits="userSpaceOnUse"
   gradientTransform="matrix(1,0,0,-1,-156,-197)"
   x1="186.625"
   y1="-258.7021"
   x2="186.625"
   y2="-248.506" /><linearGradient
   inkscape:collect="always"
   xlink:href="#SVGID_3_"
   id="linearGradient2982"
   gradientUnits="userSpaceOnUse"
   gradientTransform="matrix(1,0,0,-1,-156,-197)"
   x1="237.3691"
   y1="-274.5654"
   x2="237.3691"
   y2="-223.0167" /><linearGradient
   inkscape:collect="always"
   xlink:href="#SVGID_4_"
   id="linearGradient2984"
   gradientUnits="userSpaceOnUse"
   gradientTransform="matrix(1,0,0,-1,-156,-197)"
   x1="199.0293"
   y1="-265.7773"
   x2="278.4434"
   y2="-265.7773" /><linearGradient
   inkscape:collect="always"
   xlink:href="#SVGID_5_"
   id="linearGradient2986"
   gradientUnits="userSpaceOnUse"
   gradientTransform="matrix(1,0,0,-1,-156,-197)"
   x1="183.9668"
   y1="-253.4766"
   x2="183.9668"
   y2="-250.6126" /><linearGradient
   inkscape:collect="always"
   xlink:href="#SVGID_6_"
   id="linearGradient2988"
   gradientUnits="userSpaceOnUse"
   gradientTransform="matrix(0.9448,-0.3275,-0.3275,-0.9448,-130.0903,-201.9744)"
   x1="116.0586"
   y1="-316.2344"
   x2="116.0586"
   y2="-313.3705" /><linearGradient
   inkscape:collect="always"
   xlink:href="#SVGID_1_"
   id="linearGradient2990"
   gradientUnits="userSpaceOnUse"
   gradientTransform="matrix(1,0,0,-1,-156,-197)"
   x1="215.7656"
   y1="-278.127"
   x2="222.8434"
   y2="-212.7417" /><linearGradient
   inkscape:collect="always"
   xlink:href="#SVGID_2_"
   id="linearGradient2992"
   gradientUnits="userSpaceOnUse"
   gradientTransform="matrix(1,0,0,-1,-156,-197)"
   x1="186.625"
   y1="-258.7021"
   x2="186.625"
   y2="-248.506" /><linearGradient
   inkscape:collect="always"
   xlink:href="#SVGID_3_"
   id="linearGradient2994"
   gradientUnits="userSpaceOnUse"
   gradientTransform="matrix(1,0,0,-1,-156,-197)"
   x1="237.3691"
   y1="-274.5654"
   x2="237.3691"
   y2="-223.0167" /><linearGradient
   inkscape:collect="always"
   xlink:href="#SVGID_4_"
   id="linearGradient2996"
   gradientUnits="userSpaceOnUse"
   gradientTransform="matrix(1,0,0,-1,-156,-197)"
   x1="199.0293"
   y1="-265.7773"
   x2="278.4434"
   y2="-265.7773" /><linearGradient
   inkscape:collect="always"
   xlink:href="#SVGID_5_"
   id="linearGradient2998"
   gradientUnits="userSpaceOnUse"
   gradientTransform="matrix(1,0,0,-1,-156,-197)"
   x1="183.9668"
   y1="-253.4766"
   x2="183.9668"
   y2="-250.6126" /><linearGradient
   inkscape:collect="always"
   xlink:href="#SVGID_6_"
   id="linearGradient3000"
   gradientUnits="userSpaceOnUse"
   gradientTransform="matrix(0.9448,-0.3275,-0.3275,-0.9448,-130.0903,-201.9744)"
   x1="116.0586"
   y1="-316.2344"
   x2="116.0586"
   y2="-313.3705" /><linearGradient
   inkscape:collect="always"
   xlink:href="#SVGID_6_"
   id="linearGradient2955"
   gradientUnits="userSpaceOnUse"
   gradientTransform="matrix(-0.57840718,-0.18863826,0.20049572,-0.54419979,65.124614,-251.41487)"
   x1="116.0586"
   y1="-316.2344"
   x2="116.0586"
   y2="-313.3705" /><linearGradient
   inkscape:collect="always"
   xlink:href="#SVGID_5_"
   id="linearGradient2958"
   gradientUnits="userSpaceOnUse"
   gradientTransform="matrix(-0.61220066,0,0,-0.5759947,80.986549,-248.54964)"
   x1="183.9668"
   y1="-253.4766"
   x2="183.9668"
   y2="-250.6126" /><linearGradient
   inkscape:collect="always"
   xlink:href="#SVGID_4_"
   id="linearGradient2962"
   gradientUnits="userSpaceOnUse"
   gradientTransform="matrix(-0.61220066,0,0,-0.5759947,80.986549,-248.54964)"
   x1="199.0293"
   y1="-265.7773"
   x2="278.4434"
   y2="-265.7773" /><linearGradient
   inkscape:collect="always"
   xlink:href="#SVGID_3_"
   id="linearGradient2965"
   gradientUnits="userSpaceOnUse"
   gradientTransform="matrix(-0.61220066,0,0,-0.5759947,80.986549,-248.54964)"
   x1="237.3691"
   y1="-274.5654"
   x2="237.3691"
   y2="-223.0167" /><linearGradient
   inkscape:collect="always"
   xlink:href="#SVGID_2_"
   id="linearGradient2969"
   gradientUnits="userSpaceOnUse"
   gradientTransform="matrix(-0.61220066,0,0,-0.5759947,80.986549,-248.54964)"
   x1="186.625"
   y1="-258.7021"
   x2="186.625"
   y2="-248.506" /><linearGradient
   inkscape:collect="always"
   xlink:href="#SVGID_1_"
   id="linearGradient2972"
   gradientUnits="userSpaceOnUse"
   gradientTransform="matrix(-0.61220066,0,0,-0.5759947,80.986549,-248.54964)"
   x1="215.7656"
   y1="-278.127"
   x2="222.8434"
   y2="-212.7417" /><linearGradient
   inkscape:collect="always"
   xlink:href="#SVGID_1_"
   id="linearGradient4417"
   gradientUnits="userSpaceOnUse"
   gradientTransform="matrix(-0.61220066,0,0,-0.5759947,80.986549,-248.54964)"
   x1="215.7656"
   y1="-278.127"
   x2="222.8434"
   y2="-212.7417" /><linearGradient
   inkscape:collect="always"
   xlink:href="#SVGID_2_"
   id="linearGradient4419"
   gradientUnits="userSpaceOnUse"
   gradientTransform="matrix(-0.61220066,0,0,-0.5759947,80.986549,-248.54964)"
   x1="186.625"
   y1="-258.7021"
   x2="186.625"
   y2="-248.506" /><linearGradient
   inkscape:collect="always"
   xlink:href="#SVGID_3_"
   id="linearGradient4421"
   gradientUnits="userSpaceOnUse"
   gradientTransform="matrix(-0.61220066,0,0,-0.5759947,80.986549,-248.54964)"
   x1="237.3691"
   y1="-274.5654"
   x2="237.3691"
   y2="-223.0167" /><linearGradient
   inkscape:collect="always"
   xlink:href="#SVGID_4_"
   id="linearGradient4423"
   gradientUnits="userSpaceOnUse"
   gradientTransform="matrix(-0.61220066,0,0,-0.5759947,80.986549,-248.54964)"
   x1="199.0293"
   y1="-265.7773"
   x2="278.4434"
   y2="-265.7773" /><linearGradient
   inkscape:collect="always"
   xlink:href="#SVGID_5_"
   id="linearGradient4425"
   gradientUnits="userSpaceOnUse"
   gradientTransform="matrix(-0.61220066,0,0,-0.5759947,80.986549,-248.54964)"
   x1="183.9668"
   y1="-253.4766"
   x2="183.9668"
   y2="-250.6126" /><linearGradient
   inkscape:collect="always"
   xlink:href="#SVGID_6_"
   id="linearGradient4427"
   gradientUnits="userSpaceOnUse"
   gradientTransform="matrix(-0.57840718,-0.18863826,0.20049572,-0.54419979,65.124614,-251.41487)"
   x1="116.0586"
   y1="-316.2344"
   x2="116.0586"
   y2="-313.3705" /><linearGradient
   inkscape:collect="always"
   xlink:href="#SVGID_6_"
   id="linearGradient4430"
   gradientUnits="userSpaceOnUse"
   gradientTransform="matrix(-0.57840718,-0.18863826,0.20049572,-0.54419979,65.124614,-251.41487)"
   x1="116.0586"
   y1="-316.2344"
   x2="116.0586"
   y2="-313.3705" /><linearGradient
   inkscape:collect="always"
   xlink:href="#SVGID_5_"
   id="linearGradient4433"
   gradientUnits="userSpaceOnUse"
   gradientTransform="matrix(-0.61220066,0,0,-0.5759947,80.986549,-248.54964)"
   x1="183.9668"
   y1="-253.4766"
   x2="183.9668"
   y2="-250.6126" /><linearGradient
   inkscape:collect="always"
   xlink:href="#SVGID_4_"
   id="linearGradient4437"
   gradientUnits="userSpaceOnUse"
   gradientTransform="matrix(-0.61220066,0,0,-0.5759947,80.986549,-248.54964)"
   x1="199.0293"
   y1="-265.7773"
   x2="278.4434"
   y2="-265.7773" /><linearGradient
   inkscape:collect="always"
   xlink:href="#SVGID_3_"
   id="linearGradient4440"
   gradientUnits="userSpaceOnUse"
   gradientTransform="matrix(-0.61220066,0,0,-0.5759947,80.986549,-248.54964)"
   x1="237.3691"
   y1="-274.5654"
   x2="237.3691"
   y2="-223.0167" /><linearGradient
   inkscape:collect="always"
   xlink:href="#SVGID_2_"
   id="linearGradient4444"
   gradientUnits="userSpaceOnUse"
   gradientTransform="matrix(-0.61220066,0,0,-0.5759947,80.986549,-248.54964)"
   x1="186.625"
   y1="-258.7021"
   x2="186.625"
   y2="-248.506" /><linearGradient
   inkscape:collect="always"
   xlink:href="#SVGID_1_"
   id="linearGradient4447"
   gradientUnits="userSpaceOnUse"
   gradientTransform="matrix(-0.61220066,0,0,-0.5759947,80.986549,-248.54964)"
   x1="215.7656"
   y1="-278.127"
   x2="222.8434"
   y2="-212.7417" /><linearGradient
   inkscape:collect="always"
   xlink:href="#SVGID_1_"
   id="linearGradient4463"
   gradientUnits="userSpaceOnUse"
   gradientTransform="matrix(-0.61220066,0,0,-0.5759947,80.986549,-248.54964)"
   x1="215.7656"
   y1="-278.127"
   x2="222.8434"
   y2="-212.7417" /><linearGradient
   inkscape:collect="always"
   xlink:href="#SVGID_2_"
   id="linearGradient4465"
   gradientUnits="userSpaceOnUse"
   gradientTransform="matrix(-0.61220066,0,0,-0.5759947,80.986549,-248.54964)"
   x1="186.625"
   y1="-258.7021"
   x2="186.625"
   y2="-248.506" /><linearGradient
   inkscape:collect="always"
   xlink:href="#SVGID_3_"
   id="linearGradient4467"
   gradientUnits="userSpaceOnUse"
   gradientTransform="matrix(-0.61220066,0,0,-0.5759947,80.986549,-248.54964)"
   x1="237.3691"
   y1="-274.5654"
   x2="237.3691"
   y2="-223.0167" /><linearGradient
   inkscape:collect="always"
   xlink:href="#SVGID_4_"
   id="linearGradient4469"
   gradientUnits="userSpaceOnUse"
   gradientTransform="matrix(-0.61220066,0,0,-0.5759947,80.986549,-248.54964)"
   x1="199.0293"
   y1="-265.7773"
   x2="278.4434"
   y2="-265.7773" /><linearGradient
   inkscape:collect="always"
   xlink:href="#SVGID_5_"
   id="linearGradient4471"
   gradientUnits="userSpaceOnUse"
   gradientTransform="matrix(-0.61220066,0,0,-0.5759947,80.986549,-248.54964)"
   x1="183.9668"
   y1="-253.4766"
   x2="183.9668"
   y2="-250.6126" /><linearGradient
   inkscape:collect="always"
   xlink:href="#SVGID_6_"
   id="linearGradient4473"
   gradientUnits="userSpaceOnUse"
   gradientTransform="matrix(-0.57840718,-0.18863826,0.20049572,-0.54419979,65.124614,-251.41487)"
   x1="116.0586"
   y1="-316.2344"
   x2="116.0586"
   y2="-313.3705" /><linearGradient
   inkscape:collect="always"
   xlink:href="#SVGID_6_"
   id="linearGradient4476"
   gradientUnits="userSpaceOnUse"
   gradientTransform="matrix(-0.57840718,-0.18863826,0.20049572,-0.54419979,63.086096,-247.53198)"
   x1="116.0586"
   y1="-316.2344"
   x2="116.0586"
   y2="-313.3705" /><linearGradient
   inkscape:collect="always"
   xlink:href="#SVGID_4_"
   id="linearGradient4483"
   gradientUnits="userSpaceOnUse"
   gradientTransform="matrix(-0.61220066,0,0,-0.5759947,80.986549,-248.54964)"
   x1="199.0293"
   y1="-265.7773"
   x2="278.4434"
   y2="-265.7773" /><linearGradient
   inkscape:collect="always"
   xlink:href="#SVGID_3_"
   id="linearGradient4486"
   gradientUnits="userSpaceOnUse"
   gradientTransform="matrix(-0.61220066,0,0,-0.5759947,80.986549,-248.54964)"
   x1="237.3691"
   y1="-274.5654"
   x2="234.67352"
   y2="-144.4818" /><linearGradient
   inkscape:collect="always"
   xlink:href="#SVGID_1_"
   id="linearGradient4526"
   gradientUnits="userSpaceOnUse"
   gradientTransform="matrix(-0.61220066,0,0,-0.5759947,80.986549,-248.54964)"
   x1="215.7656"
   y1="-278.127"
   x2="222.8434"
   y2="-212.7417" /><linearGradient
   inkscape:collect="always"
   xlink:href="#SVGID_5_"
   id="linearGradient4538"
   gradientUnits="userSpaceOnUse"
   gradientTransform="matrix(-0.61220066,0,0,-0.5759947,80.986549,-248.54964)"
   x1="183.9668"
   y1="-253.4766"
   x2="183.9668"
   y2="-250.6126" /><linearGradient
   inkscape:collect="always"
   xlink:href="#SVGID_2_"
   id="linearGradient4542"
   gradientUnits="userSpaceOnUse"
   gradientTransform="matrix(-0.61220066,0,0,-0.5759947,80.986549,-248.54964)"
   x1="186.625"
   y1="-258.7021"
   x2="186.625"
   y2="-248.506" /><linearGradient
   inkscape:collect="always"
   xlink:href="#SVGID_4_"
   id="linearGradient4545"
   gradientUnits="userSpaceOnUse"
   gradientTransform="matrix(-0.61220066,0,0,-0.5759947,80.986549,-248.54964)"
   x1="199.0293"
   y1="-265.7773"
   x2="278.4434"
   y2="-265.7773" /><linearGradient
   inkscape:collect="always"
   xlink:href="#SVGID_1_"
   id="linearGradient4565"
   gradientUnits="userSpaceOnUse"
   gradientTransform="matrix(-0.61220066,0,0,-0.5759947,80.986549,-248.54964)"
   x1="215.7656"
   y1="-278.127"
   x2="222.8434"
   y2="-212.7417" /><linearGradient
   inkscape:collect="always"
   xlink:href="#SVGID_2_"
   id="linearGradient4567"
   gradientUnits="userSpaceOnUse"
   gradientTransform="matrix(-0.61220066,0,0,-0.5759947,80.986549,-248.54964)"
   x1="186.625"
   y1="-258.7021"
   x2="186.625"
   y2="-248.506" /><linearGradient
   inkscape:collect="always"
   xlink:href="#SVGID_3_"
   id="linearGradient4569"
   gradientUnits="userSpaceOnUse"
   gradientTransform="matrix(-0.61220066,0,0,-0.5759947,80.986549,-248.54964)"
   x1="237.3691"
   y1="-274.5654"
   x2="234.67352"
   y2="-144.4818" /><linearGradient
   inkscape:collect="always"
   xlink:href="#SVGID_4_"
   id="linearGradient4571"
   gradientUnits="userSpaceOnUse"
   gradientTransform="matrix(-0.61220066,0,0,-0.5759947,80.986549,-248.54964)"
   x1="199.0293"
   y1="-265.7773"
   x2="278.4434"
   y2="-265.7773" /><linearGradient
   inkscape:collect="always"
   xlink:href="#SVGID_5_"
   id="linearGradient4573"
   gradientUnits="userSpaceOnUse"
   gradientTransform="matrix(-0.61220066,0,0,-0.5759947,80.986549,-248.54964)"
   x1="183.9668"
   y1="-253.4766"
   x2="183.9668"
   y2="-250.6126" /><linearGradient
   inkscape:collect="always"
   xlink:href="#SVGID_6_"
   id="linearGradient4575"
   gradientUnits="userSpaceOnUse"
   gradientTransform="matrix(-0.57840718,-0.18863826,0.20049572,-0.54419979,63.086096,-247.53198)"
   x1="116.0586"
   y1="-316.2344"
   x2="116.0586"
   y2="-313.3705" /><linearGradient
   inkscape:collect="always"
   xlink:href="#SVGID_6_"
   id="linearGradient4578"
   gradientUnits="userSpaceOnUse"
   gradientTransform="matrix(0.56073897,0.23603192,-0.24500695,0.52566486,-149.52202,30.865391)"
   x1="116.0586"
   y1="-316.2344"
   x2="116.0586"
   y2="-313.3705" /><linearGradient
   inkscape:collect="always"
   xlink:href="#SVGID_5_"
   id="linearGradient4581"
   gradientUnits="userSpaceOnUse"
   gradientTransform="matrix(0.61008496,0.05085264,-0.04784518,0.57400413,-167.44514,30.392627)"
   x1="183.9668"
   y1="-253.4766"
   x2="183.9668"
   y2="-250.6126" /><linearGradient
   inkscape:collect="always"
   xlink:href="#SVGID_4_"
   id="linearGradient4585"
   gradientUnits="userSpaceOnUse"
   gradientTransform="matrix(0.61008496,0.05085264,-0.04784518,0.57400413,-167.44514,30.392627)"
   x1="199.0293"
   y1="-265.7773"
   x2="278.4434"
   y2="-265.7773" /><linearGradient
   inkscape:collect="always"
   xlink:href="#SVGID_3_"
   id="linearGradient4588"
   gradientUnits="userSpaceOnUse"
   gradientTransform="matrix(0.61008496,0.05085264,-0.04784518,0.57400413,-167.44514,30.392627)"
   x1="237.3691"
   y1="-274.5654"
   x2="234.67352"
   y2="-144.4818" /><linearGradient
   inkscape:collect="always"
   xlink:href="#SVGID_2_"
   id="linearGradient4591"
   gradientUnits="userSpaceOnUse"
   gradientTransform="matrix(0.61008496,0.05085264,-0.04784518,0.57400413,-167.44514,30.392627)"
   x1="186.625"
   y1="-258.7021"
   x2="186.625"
   y2="-248.506" /><linearGradient
   inkscape:collect="always"
   xlink:href="#SVGID_1_"
   id="linearGradient4594"
   gradientUnits="userSpaceOnUse"
   gradientTransform="matrix(0.61008496,0.05085264,-0.04784518,0.57400413,-167.44514,30.392627)"
   x1="215.7656"
   y1="-278.127"
   x2="222.8434"
   y2="-212.7417" /><linearGradient
   inkscape:collect="always"
   xlink:href="#SVGID_1_"
   id="linearGradient4607"
   gradientUnits="userSpaceOnUse"
   gradientTransform="matrix(0.61008496,0.05085264,-0.04784518,0.57400413,-167.44514,30.392627)"
   x1="215.7656"
   y1="-278.127"
   x2="222.8434"
   y2="-212.7417" /><linearGradient
   inkscape:collect="always"
   xlink:href="#SVGID_2_"
   id="linearGradient4609"
   gradientUnits="userSpaceOnUse"
   gradientTransform="matrix(0.61008496,0.05085264,-0.04784518,0.57400413,-167.44514,30.392627)"
   x1="186.625"
   y1="-258.7021"
   x2="186.625"
   y2="-248.506" /><linearGradient
   inkscape:collect="always"
   xlink:href="#SVGID_3_"
   id="linearGradient4611"
   gradientUnits="userSpaceOnUse"
   gradientTransform="matrix(0.61008496,0.05085264,-0.04784518,0.57400413,-167.44514,30.392627)"
   x1="237.3691"
   y1="-274.5654"
   x2="234.67352"
   y2="-144.4818" /><linearGradient
   inkscape:collect="always"
   xlink:href="#SVGID_4_"
   id="linearGradient4613"
   gradientUnits="userSpaceOnUse"
   gradientTransform="matrix(0.61008496,0.05085264,-0.04784518,0.57400413,-167.44514,30.392627)"
   x1="199.0293"
   y1="-265.7773"
   x2="278.4434"
   y2="-265.7773" /><linearGradient
   inkscape:collect="always"
   xlink:href="#SVGID_5_"
   id="linearGradient4615"
   gradientUnits="userSpaceOnUse"
   gradientTransform="matrix(0.61008496,0.05085264,-0.04784518,0.57400413,-167.44514,30.392627)"
   x1="183.9668"
   y1="-253.4766"
   x2="183.9668"
   y2="-250.6126" /><linearGradient
   inkscape:collect="always"
   xlink:href="#SVGID_6_"
   id="linearGradient4617"
   gradientUnits="userSpaceOnUse"
   gradientTransform="matrix(0.56073897,0.23603192,-0.24500695,0.52566486,-149.52202,30.865391)"
   x1="116.0586"
   y1="-316.2344"
   x2="116.0586"
   y2="-313.3705" /></defs>

<linearGradient
   id="SVGID_1_"
   gradientUnits="userSpaceOnUse"
   x1="215.7656"
   y1="-278.127"
   x2="222.8434"
   y2="-212.7417"
   gradientTransform="matrix(1 0 0 -1 -156 -197)">
	<stop
   offset="0"
   style="stop-color:#20ABFF"
   id="stop11" />
	<stop
   offset="0.5838"
   style="stop-color:#1572DE"
   id="stop13" />
	<stop
   offset="0.8528"
   style="stop-color:#0938BC"
   id="stop15" />
</linearGradient>

<linearGradient
   id="SVGID_2_"
   gradientUnits="userSpaceOnUse"
   x1="186.625"
   y1="-258.7021"
   x2="186.625"
   y2="-248.506"
   gradientTransform="matrix(1 0 0 -1 -156 -197)">
	<stop
   offset="0"
   style="stop-color:#20D4FF"
   id="stop20" />
	<stop
   offset="1"
   style="stop-color:#20ADFF"
   id="stop22" />
</linearGradient>


<linearGradient
   id="SVGID_3_"
   gradientUnits="userSpaceOnUse"
   x1="237.3691"
   y1="-274.5654"
   x2="237.3691"
   y2="-223.0167"
   gradientTransform="matrix(1 0 0 -1 -156 -197)">
	<stop
   offset="0"
   style="stop-color:#3AEFFF"
   id="stop29" />
	<stop
   offset="0.5482"
   style="stop-color:#20ABFF"
   id="stop31" />
	<stop
   offset="0.619"
   style="stop-color:#1EA1F9"
   id="stop33" />
	<stop
   offset="0.7399"
   style="stop-color:#1986E9"
   id="stop35" />
	<stop
   offset="0.8955"
   style="stop-color:#105AD0"
   id="stop37" />
	<stop
   offset="1"
   style="stop-color:#0938BC"
   id="stop39" />
</linearGradient>

<linearGradient
   id="SVGID_4_"
   gradientUnits="userSpaceOnUse"
   x1="199.0293"
   y1="-265.7773"
   x2="278.4434"
   y2="-265.7773"
   gradientTransform="matrix(1 0 0 -1 -156 -197)">
	<stop
   offset="0"
   style="stop-color:#20ABFF"
   id="stop44" />
	<stop
   offset="1"
   style="stop-color:#2057D9"
   id="stop46" />
</linearGradient>


<linearGradient
   id="SVGID_5_"
   gradientUnits="userSpaceOnUse"
   x1="183.9668"
   y1="-253.4766"
   x2="183.9668"
   y2="-250.6126"
   gradientTransform="matrix(1 0 0 -1 -156 -197)">
	<stop
   offset="0"
   style="stop-color:#A3E0FF"
   id="stop53" />
	<stop
   offset="1"
   style="stop-color:#FFFFFF"
   id="stop55" />
</linearGradient>

<linearGradient
   id="SVGID_6_"
   gradientUnits="userSpaceOnUse"
   x1="116.0586"
   y1="-316.2344"
   x2="116.0586"
   y2="-313.3705"
   gradientTransform="matrix(0.9448 -0.3275 -0.3275 -0.9448 -130.0903 -201.9744)">
	<stop
   offset="0"
   style="stop-color:#A3E0FF"
   id="stop60" />
	<stop
   offset="1"
   style="stop-color:#FFFFFF"
   id="stop62" />
</linearGradient>

<g
   id="g2885"
   transform="matrix(0.61220066,0,0,0.5759947,50.578281,33.210484)"><path
     id="path8"
     style="opacity:0.5;fill:#000000;stroke:#000000;stroke-width:0;filter:url(#Gaussian_Blur)"
     d="m 7.333,54.584 c 0,0 67.667,-15.334 114.544,3.387 0.996,1.155 0.379,2.506 -1.603,3.453 -1.978,0.945 -68.924,25.151 -68.924,25.151 0,0 -3.244,1.307 -4.803,1.264 -2.569,-0.069 -4.087,-0.8 -4.129,-6.866 -0.027,-3.962 1.748,-10.556 1.748,-10.556 l -35.2,-0.062 c 0,0 -2.428,0.155 -4.381,-1.938 C 2.71,66.406 7.333,54.584 7.333,54.584 z"
     enable-background="new    " /><path
     sodipodi:nodetypes="csssccscscscsscccc"
     id="path17"
     d="m 3.269,61.407 c 0,0 -0.076,-6.572 -0.084,-8.765 C 3.173,49.495 2.9630708,45.841824 3.119964,40.223051 3.2753199,34.659322 2.9097365,33.850631 3.6088261,32.616747 4.2857123,31.422053 43.522164,32.212 43.522164,32.212 l 0.440961,-13.599474 c 0,0 -0.133193,-5.409473 1.764811,-4.767242 32.377673,10.955691 47.907618,16.637312 69.151144,25.83498 1.074,0.531 7.17692,2.91374 7.19692,4.03074 0.035,1.855 0.171,11.375 0.171,11.375 0,0 0.379,2.507 -1.603,3.454 -1.977,0.946 -68.924,25.151 -68.924,25.151 0,0 -3.245,1.309 -4.804,1.266 -2.57,-0.07 -2.914984,-0.506996 -2.956984,-6.572996 C 43.931016,74.422004 43.882,67.897 43.882,67.897 L 9.334,67.475 c 0,0 -2.428,0.155 -4.381,-1.938 -1.874,-2.014 -1.684,-4.13 -1.684,-4.13 z"
     style="fill:url(#linearGradient2978)" /><path
     id="path24"
     d="M 49.463,65.747 8.933,65.832 6.91,64.566 c 0,0 -0.59,-3.116 -0.505,-6.571 0.085,-3.455 0.084,-3.455 0.084,-3.455 0,0 -0.084,-3.201 3.539,-3.286 3.623,-0.085 44.826,-0.253 44.826,-0.253 l -5.391,14.746 z"
     style="fill:url(#linearGradient2980)" /><path
     sodipodi:nodetypes="csccscsscsc"
     id="path26"
     d="m 3.236,58.395 c 0,0 -0.758,5.311 1.833,7.395 1.324,1.064 2.948,1.703 4.192,1.729 8.595,0.168 34.621,0.379 34.621,0.379 0,0 1.384457,8.132064 1.472721,10.746974 0.147,4.355033 4.848331,2.380149 4.848331,2.380149 0,0 -1.353016,-4.527613 -0.503016,-7.034613 0.8,-2.358 2.716498,-8.859016 1.759498,-9.987016 C 50.638534,63.033494 9.64,64.714 9.64,64.714 c 0,0 -2.928,0.2 -4.382,-1.38 C 3.907,61.865 3.236,58.395 3.236,58.395 z"
     style="fill:#20bfff" /><path
     sodipodi:nodetypes="cccscc"
     id="path41"
     d="m 50.203052,26.113587 0,-4.756487 68.346418,28.088531 c 0,0 1.72116,6.732531 -0.80684,7.742531 -2.526,1.011 -68.992202,24.028293 -68.992202,24.028293 l 1.452624,-55.102868 z"
     style="fill:url(#linearGradient2982)" /><path
     sodipodi:nodetypes="cssscccc"
     id="path48"
     d="m 49.18,82.389 c 0,0 66.071,-24.488 67.683,-25.09 1.621,-0.604 5.135,-1.801 5.197,-3.775 0.111,-3.474 1.265,4.093 -1.068,4.979 -1.91,0.725 -69.642,25.362 -69.642,25.362 0,0 -2.232,1.096 -4.739,1.073 l 0.042,-1.918 c 1.011,0 2.527,-0.631 2.527,-0.631 z"
     style="fill:url(#linearGradient2984)" /><path
     sodipodi:nodetypes="cscssssccscc"
     id="path50"
     d="m 6.0004496,47.314 c 0,0 0.038757,-6.162595 -0.00746,-9.178678 -0.050187,-3.274864 0.1910071,-3.6877 0.1910071,-3.6877 l 42.1591963,0.0088 c 3.348944,6.99e-4 1.492417,-9.805242 1.859863,-16.182488 0.127652,-2.215478 55.185994,20.929913 55.459994,22.015913 0.346,1.374 -5.32756,4.616004 -15.990899,10.489692 -9.733529,5.36152 -23.674244,8.996228 -34.497131,11.559206 -6.361723,1.382527 -5.095605,-1.219897 -4.45802,-7.040745 0,-1.69 -0.485,-3.55 -3.497,-5.708 C 43.724,47.083 33.967,47.098 29.463,47.189 23.745,47.302 6.0004496,47.314 6.0004496,47.314 z"
     enable-background="new    "
     style="opacity:0.6;fill:#ffffff" /><path
     id="path57"
     d="m 50.128,54.961 c 0,1.023 -0.83,1.854 -1.854,1.854 H 7.66 c -1.023,0 -1.854,-0.828 -1.854,-1.854 l 0,0 c 0,-1.023 0.83,-1.854 1.854,-1.854 h 40.614 c 1.024,0 1.854,0.831 1.854,1.854 l 0,0 z"
     enable-background="new    "
     style="opacity:0.7;fill:url(#linearGradient2986)" /><path
     id="path64"
     d="m 119.632,44.537 c 0.335,0.968 -0.776,2.23 -2.487,2.824 L 49.334,70.866 c -1.709,0.593 -3.367,0.29 -3.703,-0.679 l 0,0 c -0.334,-0.967 0.78,-2.23 2.488,-2.823 l 67.813,-23.506 c 1.709,-0.593 3.364,-0.289 3.7,0.679 l 0,0 z"
     enable-background="new    "
     style="opacity:0.7;fill:url(#linearGradient2988)" /></g><g
   id="g2896"
   transform="matrix(-0.61220066,0,0,0.5759947,77.421718,10.128849)"><path
     enable-background="new    "
     d="m 7.333,54.584 c 0,0 67.667,-15.334 114.544,3.387 0.996,1.155 0.379,2.506 -1.603,3.453 -1.978,0.945 -68.924,25.151 -68.924,25.151 0,0 -3.244,1.307 -4.803,1.264 -2.569,-0.069 -4.087,-0.8 -4.129,-6.866 -0.027,-3.962 1.748,-10.556 1.748,-10.556 l -35.2,-0.062 c 0,0 -2.428,0.155 -4.381,-1.938 C 2.71,66.406 7.333,54.584 7.333,54.584 z"
     style="opacity:0.5;fill:#000000;stroke:#000000;stroke-width:0;filter:url(#Gaussian_Blur)"
     id="path2898" /><path
     style="fill:url(#linearGradient2990)"
     d="m 3.269,61.407 c 0,0 -0.076,-6.572 -0.084,-8.765 C 3.173,49.495 2.9630708,45.841824 3.119964,40.223051 3.2753199,34.659322 2.9097365,33.850631 3.6088261,32.616747 4.2857123,31.422053 43.522164,32.212 43.522164,32.212 l 0.440961,-13.599474 c 0,0 -0.133193,-5.409473 1.764811,-4.767242 32.377673,10.955691 47.907618,16.637312 69.151144,25.83498 1.074,0.531 7.17692,2.91374 7.19692,4.03074 0.035,1.855 0.171,11.375 0.171,11.375 0,0 0.379,2.507 -1.603,3.454 -1.977,0.946 -68.924,25.151 -68.924,25.151 0,0 -3.245,1.309 -4.804,1.266 -2.57,-0.07 -2.914984,-0.506996 -2.956984,-6.572996 C 43.931016,74.422004 43.882,67.897 43.882,67.897 L 9.334,67.475 c 0,0 -2.428,0.155 -4.381,-1.938 -1.874,-2.014 -1.684,-4.13 -1.684,-4.13 z"
     id="path2900"
     sodipodi:nodetypes="csssccscscscsscccc" /><path
     style="fill:url(#linearGradient2992)"
     d="M 49.463,65.747 8.933,65.832 6.91,64.566 c 0,0 -0.59,-3.116 -0.505,-6.571 0.085,-3.455 0.084,-3.455 0.084,-3.455 0,0 -0.084,-3.201 3.539,-3.286 3.623,-0.085 44.826,-0.253 44.826,-0.253 l -5.391,14.746 z"
     id="path2902" /><path
     style="fill:#20bfff"
     d="m 3.236,58.395 c 0,0 -0.758,5.311 1.833,7.395 1.324,1.064 2.948,1.703 4.192,1.729 8.595,0.168 34.621,0.379 34.621,0.379 0,0 1.384457,8.132064 1.472721,10.746974 0.147,4.355033 4.848331,2.380149 4.848331,2.380149 0,0 -1.353016,-4.527613 -0.503016,-7.034613 0.8,-2.358 2.716498,-8.859016 1.759498,-9.987016 C 50.638534,63.033494 9.64,64.714 9.64,64.714 c 0,0 -2.928,0.2 -4.382,-1.38 C 3.907,61.865 3.236,58.395 3.236,58.395 z"
     id="path2904"
     sodipodi:nodetypes="csccscsscsc" /><path
     style="fill:url(#linearGradient2994)"
     d="m 50.203052,26.113587 0,-4.756487 68.346418,28.088531 c 0,0 1.72116,6.732531 -0.80684,7.742531 -2.526,1.011 -68.992202,24.028293 -68.992202,24.028293 l 1.452624,-55.102868 z"
     id="path2906"
     sodipodi:nodetypes="cccscc" /><path
     style="fill:url(#linearGradient2996)"
     d="m 49.18,82.389 c 0,0 66.071,-24.488 67.683,-25.09 1.621,-0.604 5.135,-1.801 5.197,-3.775 0.111,-3.474 1.265,4.093 -1.068,4.979 -1.91,0.725 -69.642,25.362 -69.642,25.362 0,0 -2.232,1.096 -4.739,1.073 l 0.042,-1.918 c 1.011,0 2.527,-0.631 2.527,-0.631 z"
     id="path2908"
     sodipodi:nodetypes="cssscccc" /><path
     style="opacity:0.6;fill:#ffffff"
     enable-background="new    "
     d="m 6.0004496,47.314 c 0,0 0.038757,-6.162595 -0.00746,-9.178678 -0.050187,-3.274864 0.1910071,-3.6877 0.1910071,-3.6877 l 42.1591963,0.0088 c 3.348944,6.99e-4 1.492417,-9.805242 1.859863,-16.182488 0.127652,-2.215478 55.185994,20.929913 55.459994,22.015913 0.346,1.374 -5.32756,4.616004 -15.990899,10.489692 -9.733529,5.36152 -23.674244,8.996228 -34.497131,11.559206 -6.361723,1.382527 -5.095605,-1.219897 -4.45802,-7.040745 0,-1.69 -0.485,-3.55 -3.497,-5.708 C 43.724,47.083 33.967,47.098 29.463,47.189 23.745,47.302 6.0004496,47.314 6.0004496,47.314 z"
     id="path2910"
     sodipodi:nodetypes="cscssssccscc" /><path
     style="opacity:0.7;fill:url(#linearGradient2998)"
     enable-background="new    "
     d="m 50.128,54.961 c 0,1.023 -0.83,1.854 -1.854,1.854 H 7.66 c -1.023,0 -1.854,-0.828 -1.854,-1.854 l 0,0 c 0,-1.023 0.83,-1.854 1.854,-1.854 h 40.614 c 1.024,0 1.854,0.831 1.854,1.854 l 0,0 z"
     id="path2912" /><path
     style="opacity:0.7;fill:url(#linearGradient3000)"
     enable-background="new    "
     d="m 119.632,44.537 c 0.335,0.968 -0.776,2.23 -2.487,2.824 L 49.334,70.866 c -1.709,0.593 -3.367,0.29 -3.703,-0.679 l 0,0 c -0.334,-0.967 0.78,-2.23 2.488,-2.823 l 67.813,-23.506 c 1.709,-0.593 3.364,-0.289 3.7,0.679 l 0,0 z"
     id="path2914" /></g></svg>