<?xml version="1.0" encoding="UTF-8" standalone="no"?>
<!-- Generator: Adobe Illustrator 13.0.0, SVG Export Plug-In . SVG Version: 6.00 Build 14948)  -->

<svg
   xmlns:dc="http://purl.org/dc/elements/1.1/"
   xmlns:cc="http://creativecommons.org/ns#"
   xmlns:rdf="http://www.w3.org/1999/02/22-rdf-syntax-ns#"
   xmlns:svg="http://www.w3.org/2000/svg"
   xmlns="http://www.w3.org/2000/svg"
   xmlns:xlink="http://www.w3.org/1999/xlink"
   xmlns:sodipodi="http://sodipodi.sourceforge.net/DTD/sodipodi-0.dtd"
   xmlns:inkscape="http://www.inkscape.org/namespaces/inkscape"
   version="1.1"
   id="Layer_1"
   x="0px"
   y="0px"
   width="128px"
   height="100px"
   viewBox="0 0 128 100"
   enable-background="new 0 0 128 100"
   xml:space="preserve"
   inkscape:version="0.47 r22583"
   sodipodi:docname="Right-arrow.svg"><metadata
   id="metadata68"><rdf:RDF><cc:Work
       rdf:about=""><dc:format>image/svg+xml</dc:format><dc:type
         rdf:resource="http://purl.org/dc/dcmitype/StillImage" /></cc:Work></rdf:RDF></metadata><sodipodi:namedview
   pagecolor="#ffffff"
   bordercolor="#666666"
   borderopacity="1"
   objecttolerance="10"
   gridtolerance="10"
   guidetolerance="10"
   inkscape:pageopacity="0"
   inkscape:pageshadow="2"
   inkscape:window-width="1680"
   inkscape:window-height="993"
   id="namedview66"
   showgrid="false"
   inkscape:zoom="3.4129231"
   inkscape:cx="73.149788"
   inkscape:cy="1.3930163"
   inkscape:window-x="0"
   inkscape:window-y="0"
   inkscape:window-maximized="1"
   inkscape:current-layer="Layer_1" />
<defs
   id="defs3"><inkscape:perspective
   sodipodi:type="inkscape:persp3d"
   inkscape:vp_x="0 : 50 : 1"
   inkscape:vp_y="0 : 1000 : 0"
   inkscape:vp_z="128 : 50 : 1"
   inkscape:persp3d-origin="64 : 33.333333 : 1"
   id="perspective70" />
<filter
   id="Gaussian_Blur">
<feGaussianBlur
   in="SourceGraphic"
   stdDeviation="2"
   id="feGaussianBlur6" />
</filter>
<linearGradient
   inkscape:collect="always"
   xlink:href="#SVGID_1_"
   id="linearGradient2907"
   gradientUnits="userSpaceOnUse"
   gradientTransform="matrix(1,0,0,-1,-156,-197)"
   x1="215.7656"
   y1="-278.127"
   x2="222.8434"
   y2="-212.7417" /><linearGradient
   inkscape:collect="always"
   xlink:href="#SVGID_2_"
   id="linearGradient2909"
   gradientUnits="userSpaceOnUse"
   gradientTransform="matrix(1,0,0,-1,-156,-197)"
   x1="186.625"
   y1="-258.7021"
   x2="186.625"
   y2="-248.506" /><linearGradient
   inkscape:collect="always"
   xlink:href="#SVGID_3_"
   id="linearGradient2911"
   gradientUnits="userSpaceOnUse"
   gradientTransform="matrix(1,0,0,-1,-156,-197)"
   x1="237.3691"
   y1="-274.5654"
   x2="237.3691"
   y2="-223.0167" /><linearGradient
   inkscape:collect="always"
   xlink:href="#SVGID_4_"
   id="linearGradient2913"
   gradientUnits="userSpaceOnUse"
   gradientTransform="matrix(1,0,0,-1,-156,-197)"
   x1="199.0293"
   y1="-265.7773"
   x2="278.4434"
   y2="-265.7773" /><linearGradient
   inkscape:collect="always"
   xlink:href="#SVGID_5_"
   id="linearGradient2915"
   gradientUnits="userSpaceOnUse"
   gradientTransform="matrix(1,0,0,-1,-156,-197)"
   x1="183.9668"
   y1="-253.4766"
   x2="183.9668"
   y2="-250.6126" /><linearGradient
   inkscape:collect="always"
   xlink:href="#SVGID_6_"
   id="linearGradient2917"
   gradientUnits="userSpaceOnUse"
   gradientTransform="matrix(0.9448,-0.3275,-0.3275,-0.9448,-130.0903,-201.9744)"
   x1="116.0586"
   y1="-316.2344"
   x2="116.0586"
   y2="-313.3705" /><linearGradient
   inkscape:collect="always"
   xlink:href="#SVGID_1_"
   id="linearGradient2919"
   gradientUnits="userSpaceOnUse"
   gradientTransform="matrix(1,0,0,-1,-156,-197)"
   x1="215.7656"
   y1="-278.127"
   x2="222.8434"
   y2="-212.7417" /><linearGradient
   inkscape:collect="always"
   xlink:href="#SVGID_2_"
   id="linearGradient2921"
   gradientUnits="userSpaceOnUse"
   gradientTransform="matrix(1,0,0,-1,-156,-197)"
   x1="186.625"
   y1="-258.7021"
   x2="186.625"
   y2="-248.506" /><linearGradient
   inkscape:collect="always"
   xlink:href="#SVGID_3_"
   id="linearGradient2923"
   gradientUnits="userSpaceOnUse"
   gradientTransform="matrix(1,0,0,-1,-156,-197)"
   x1="237.3691"
   y1="-274.5654"
   x2="237.3691"
   y2="-223.0167" /><linearGradient
   inkscape:collect="always"
   xlink:href="#SVGID_4_"
   id="linearGradient2925"
   gradientUnits="userSpaceOnUse"
   gradientTransform="matrix(1,0,0,-1,-156,-197)"
   x1="199.0293"
   y1="-265.7773"
   x2="278.4434"
   y2="-265.7773" /><linearGradient
   inkscape:collect="always"
   xlink:href="#SVGID_5_"
   id="linearGradient2927"
   gradientUnits="userSpaceOnUse"
   gradientTransform="matrix(1,0,0,-1,-156,-197)"
   x1="183.9668"
   y1="-253.4766"
   x2="183.9668"
   y2="-250.6126" /><linearGradient
   inkscape:collect="always"
   xlink:href="#SVGID_6_"
   id="linearGradient2929"
   gradientUnits="userSpaceOnUse"
   gradientTransform="matrix(0.9448,-0.3275,-0.3275,-0.9448,-130.0903,-201.9744)"
   x1="116.0586"
   y1="-316.2344"
   x2="116.0586"
   y2="-313.3705" /><linearGradient
   inkscape:collect="always"
   xlink:href="#SVGID_6_"
   id="linearGradient2932"
   gradientUnits="userSpaceOnUse"
   gradientTransform="matrix(0.9448,-0.3275,-0.3275,-0.9448,-130.0903,-201.9744)"
   x1="116.0586"
   y1="-316.2344"
   x2="116.0586"
   y2="-313.3705" /><linearGradient
   inkscape:collect="always"
   xlink:href="#SVGID_5_"
   id="linearGradient2935"
   gradientUnits="userSpaceOnUse"
   gradientTransform="matrix(1,0,0,-1,-156,-197)"
   x1="183.9668"
   y1="-253.4766"
   x2="183.9668"
   y2="-250.6126" /><linearGradient
   inkscape:collect="always"
   xlink:href="#SVGID_4_"
   id="linearGradient2939"
   gradientUnits="userSpaceOnUse"
   gradientTransform="matrix(1,0,0,-1,-156,-197)"
   x1="199.0293"
   y1="-265.7773"
   x2="278.4434"
   y2="-265.7773" /><linearGradient
   inkscape:collect="always"
   xlink:href="#SVGID_3_"
   id="linearGradient2942"
   gradientUnits="userSpaceOnUse"
   gradientTransform="matrix(1,0,0,-1,-156,-197)"
   x1="237.3691"
   y1="-274.5654"
   x2="237.3691"
   y2="-223.0167" /><linearGradient
   inkscape:collect="always"
   xlink:href="#SVGID_2_"
   id="linearGradient2946"
   gradientUnits="userSpaceOnUse"
   gradientTransform="matrix(1,0,0,-1,-156,-197)"
   x1="186.625"
   y1="-258.7021"
   x2="186.625"
   y2="-248.506" /><linearGradient
   inkscape:collect="always"
   xlink:href="#SVGID_1_"
   id="linearGradient2949"
   gradientUnits="userSpaceOnUse"
   gradientTransform="matrix(1,0,0,-1,-156,-197)"
   x1="215.7656"
   y1="-278.127"
   x2="222.8434"
   y2="-212.7417" /><linearGradient
   inkscape:collect="always"
   xlink:href="#SVGID_1_"
   id="linearGradient2983"
   gradientUnits="userSpaceOnUse"
   gradientTransform="matrix(1,0,0,-1,-156,-197)"
   x1="215.7656"
   y1="-278.127"
   x2="222.8434"
   y2="-212.7417" /><linearGradient
   inkscape:collect="always"
   xlink:href="#SVGID_2_"
   id="linearGradient2985"
   gradientUnits="userSpaceOnUse"
   gradientTransform="matrix(1,0,0,-1,-156,-197)"
   x1="186.625"
   y1="-258.7021"
   x2="186.625"
   y2="-248.506" /><linearGradient
   inkscape:collect="always"
   xlink:href="#SVGID_3_"
   id="linearGradient2987"
   gradientUnits="userSpaceOnUse"
   gradientTransform="matrix(1,0,0,-1,-156,-197)"
   x1="237.3691"
   y1="-274.5654"
   x2="237.3691"
   y2="-223.0167" /><linearGradient
   inkscape:collect="always"
   xlink:href="#SVGID_4_"
   id="linearGradient2989"
   gradientUnits="userSpaceOnUse"
   gradientTransform="matrix(1,0,0,-1,-156,-197)"
   x1="199.0293"
   y1="-265.7773"
   x2="278.4434"
   y2="-265.7773" /><linearGradient
   inkscape:collect="always"
   xlink:href="#SVGID_5_"
   id="linearGradient2991"
   gradientUnits="userSpaceOnUse"
   gradientTransform="matrix(1,0,0,-1,-156,-197)"
   x1="183.9668"
   y1="-253.4766"
   x2="183.9668"
   y2="-250.6126" /><linearGradient
   inkscape:collect="always"
   xlink:href="#SVGID_6_"
   id="linearGradient2993"
   gradientUnits="userSpaceOnUse"
   gradientTransform="matrix(0.9448,-0.3275,-0.3275,-0.9448,-130.0903,-201.9744)"
   x1="116.0586"
   y1="-316.2344"
   x2="116.0586"
   y2="-313.3705" /><linearGradient
   inkscape:collect="always"
   xlink:href="#SVGID_1_"
   id="linearGradient2995"
   gradientUnits="userSpaceOnUse"
   gradientTransform="matrix(1,0,0,-1,-156,-197)"
   x1="215.7656"
   y1="-278.127"
   x2="222.8434"
   y2="-212.7417" /><linearGradient
   inkscape:collect="always"
   xlink:href="#SVGID_2_"
   id="linearGradient2997"
   gradientUnits="userSpaceOnUse"
   gradientTransform="matrix(1,0,0,-1,-156,-197)"
   x1="186.625"
   y1="-258.7021"
   x2="186.625"
   y2="-248.506" /><linearGradient
   inkscape:collect="always"
   xlink:href="#SVGID_3_"
   id="linearGradient2999"
   gradientUnits="userSpaceOnUse"
   gradientTransform="matrix(1,0,0,-1,-156,-197)"
   x1="237.3691"
   y1="-274.5654"
   x2="237.3691"
   y2="-223.0167" /><linearGradient
   inkscape:collect="always"
   xlink:href="#SVGID_4_"
   id="linearGradient3001"
   gradientUnits="userSpaceOnUse"
   gradientTransform="matrix(1,0,0,-1,-156,-197)"
   x1="199.0293"
   y1="-265.7773"
   x2="278.4434"
   y2="-265.7773" /><linearGradient
   inkscape:collect="always"
   xlink:href="#SVGID_5_"
   id="linearGradient3003"
   gradientUnits="userSpaceOnUse"
   gradientTransform="matrix(1,0,0,-1,-156,-197)"
   x1="183.9668"
   y1="-253.4766"
   x2="183.9668"
   y2="-250.6126" /><linearGradient
   inkscape:collect="always"
   xlink:href="#SVGID_6_"
   id="linearGradient3005"
   gradientUnits="userSpaceOnUse"
   gradientTransform="matrix(0.9448,-0.3275,-0.3275,-0.9448,-130.0903,-201.9744)"
   x1="116.0586"
   y1="-316.2344"
   x2="116.0586"
   y2="-313.3705" /><linearGradient
   inkscape:collect="always"
   xlink:href="#SVGID_6_"
   id="linearGradient3008"
   gradientUnits="userSpaceOnUse"
   gradientTransform="matrix(0.9448,-0.3275,-0.3275,-0.9448,-130.0903,-201.9744)"
   x1="116.0586"
   y1="-316.2344"
   x2="116.0586"
   y2="-313.3705" /><linearGradient
   inkscape:collect="always"
   xlink:href="#SVGID_5_"
   id="linearGradient3011"
   gradientUnits="userSpaceOnUse"
   gradientTransform="matrix(1,0,0,-1,-156,-197)"
   x1="183.9668"
   y1="-253.4766"
   x2="183.9668"
   y2="-250.6126" /><linearGradient
   inkscape:collect="always"
   xlink:href="#SVGID_4_"
   id="linearGradient3015"
   gradientUnits="userSpaceOnUse"
   gradientTransform="matrix(1,0,0,-1,-156,-197)"
   x1="199.0293"
   y1="-265.7773"
   x2="278.4434"
   y2="-265.7773" /><linearGradient
   inkscape:collect="always"
   xlink:href="#SVGID_3_"
   id="linearGradient3018"
   gradientUnits="userSpaceOnUse"
   gradientTransform="matrix(1,0,0,-1,-156,-197)"
   x1="237.3691"
   y1="-274.5654"
   x2="237.3691"
   y2="-223.0167" /><linearGradient
   inkscape:collect="always"
   xlink:href="#SVGID_2_"
   id="linearGradient3022"
   gradientUnits="userSpaceOnUse"
   gradientTransform="matrix(1,0,0,-1,-156,-197)"
   x1="186.625"
   y1="-258.7021"
   x2="186.625"
   y2="-248.506" /><linearGradient
   inkscape:collect="always"
   xlink:href="#SVGID_1_"
   id="linearGradient3025"
   gradientUnits="userSpaceOnUse"
   gradientTransform="matrix(1,0,0,-1,-156,-197)"
   x1="215.7656"
   y1="-278.127"
   x2="222.8434"
   y2="-212.7417" /></defs>

<linearGradient
   id="SVGID_1_"
   gradientUnits="userSpaceOnUse"
   x1="215.7656"
   y1="-278.127"
   x2="222.8434"
   y2="-212.7417"
   gradientTransform="matrix(1 0 0 -1 -156 -197)">
	<stop
   offset="0"
   style="stop-color:#20ABFF"
   id="stop11" />
	<stop
   offset="0.5838"
   style="stop-color:#1572DE"
   id="stop13" />
	<stop
   offset="0.8528"
   style="stop-color:#0938BC"
   id="stop15" />
</linearGradient>

<linearGradient
   id="SVGID_2_"
   gradientUnits="userSpaceOnUse"
   x1="186.625"
   y1="-258.7021"
   x2="186.625"
   y2="-248.506"
   gradientTransform="matrix(1 0 0 -1 -156 -197)">
	<stop
   offset="0"
   style="stop-color:#20D4FF"
   id="stop20" />
	<stop
   offset="1"
   style="stop-color:#20ADFF"
   id="stop22" />
</linearGradient>


<linearGradient
   id="SVGID_3_"
   gradientUnits="userSpaceOnUse"
   x1="237.3691"
   y1="-274.5654"
   x2="237.3691"
   y2="-223.0167"
   gradientTransform="matrix(1 0 0 -1 -156 -197)">
	<stop
   offset="0"
   style="stop-color:#3AEFFF"
   id="stop29" />
	<stop
   offset="0.5482"
   style="stop-color:#20ABFF"
   id="stop31" />
	<stop
   offset="0.619"
   style="stop-color:#1EA1F9"
   id="stop33" />
	<stop
   offset="0.7399"
   style="stop-color:#1986E9"
   id="stop35" />
	<stop
   offset="0.8955"
   style="stop-color:#105AD0"
   id="stop37" />
	<stop
   offset="1"
   style="stop-color:#0938BC"
   id="stop39" />
</linearGradient>

<linearGradient
   id="SVGID_4_"
   gradientUnits="userSpaceOnUse"
   x1="199.0293"
   y1="-265.7773"
   x2="278.4434"
   y2="-265.7773"
   gradientTransform="matrix(1 0 0 -1 -156 -197)">
	<stop
   offset="0"
   style="stop-color:#20ABFF"
   id="stop44" />
	<stop
   offset="1"
   style="stop-color:#2057D9"
   id="stop46" />
</linearGradient>


<linearGradient
   id="SVGID_5_"
   gradientUnits="userSpaceOnUse"
   x1="183.9668"
   y1="-253.4766"
   x2="183.9668"
   y2="-250.6126"
   gradientTransform="matrix(1 0 0 -1 -156 -197)">
	<stop
   offset="0"
   style="stop-color:#A3E0FF"
   id="stop53" />
	<stop
   offset="1"
   style="stop-color:#FFFFFF"
   id="stop55" />
</linearGradient>

<linearGradient
   id="SVGID_6_"
   gradientUnits="userSpaceOnUse"
   x1="116.0586"
   y1="-316.2344"
   x2="116.0586"
   y2="-313.3705"
   gradientTransform="matrix(0.9448 -0.3275 -0.3275 -0.9448 -130.0903 -201.9744)">
	<stop
   offset="0"
   style="stop-color:#A3E0FF"
   id="stop60" />
	<stop
   offset="1"
   style="stop-color:#FFFFFF"
   id="stop62" />
</linearGradient>
<path
   enable-background="new    "
   d="m 7.333,54.584 c 0,0 67.667,-15.334 114.544,3.387 0.996,1.155 0.379,2.506 -1.603,3.453 -1.978,0.945 -68.924,25.151 -68.924,25.151 0,0 -3.244,1.307 -4.803,1.264 -2.569,-0.069 -4.087,-0.8 -4.129,-6.866 -0.027,-3.962 1.748,-10.556 1.748,-10.556 l -35.2,-0.062 c 0,0 -2.428,0.155 -4.381,-1.938 C 2.71,66.406 7.333,54.584 7.333,54.584 z"
   style="opacity:0.5;fill:#000000;stroke:#000000;stroke-width:0;filter:url(#Gaussian_Blur)"
   id="path8" /><path
   style="fill:url(#linearGradient3025)"
   d="m 3.269,61.407 c 0,0 -0.076,-6.572 -0.084,-8.765 C 3.173,49.495 3.6438698,45.841824 3.8007627,40.223051 3.9561186,34.659322 3.9215254,32.19 5.9435254,32.19 c 2.022,0 41.5378926,0.022 41.5378926,0.022 l 0.440961,-13.599474 c 0,0 -0.133193,-5.409473 1.764811,-4.767242 32.377673,10.955691 47.907618,16.637312 69.15114,25.83498 1.074,0.531 3.21767,2.91374 3.23767,4.03074 0.035,1.855 0.171,11.375 0.171,11.375 0,0 0.379,2.507 -1.603,3.454 -1.977,0.946 -68.924,25.151 -68.924,25.151 0,0 -3.245,1.309 -4.804,1.266 -2.57,-0.07 -2.914984,-0.506996 -2.956984,-6.572996 C 43.931016,74.422004 43.882,67.897 43.882,67.897 L 9.334,67.475 c 0,0 -2.428,0.155 -4.381,-1.938 -1.874,-2.014 -1.684,-4.13 -1.684,-4.13 z"
   id="path17"
   sodipodi:nodetypes="csssccscscscsscccc" /><path
   style="fill:url(#linearGradient3022)"
   d="M 49.463,65.747 8.933,65.832 6.91,64.566 c 0,0 -0.59,-3.116 -0.505,-6.571 0.085,-3.455 0.084,-3.455 0.084,-3.455 0,0 -0.084,-3.201 3.539,-3.286 3.623,-0.085 44.826,-0.253 44.826,-0.253 l -5.391,14.746 z"
   id="path24" /><path
   style="fill:#20bfff"
   d="m 3.236,58.395 c 0,0 -0.758,5.311 1.833,7.395 1.324,1.064 2.948,1.703 4.192,1.729 8.595,0.168 34.621,0.379 34.621,0.379 0,0 1.526274,6.572082 1.614538,9.186992 0.147,4.355033 3.594016,3.656498 3.594016,3.656498 0,0 -0.240518,-4.24398 0.609482,-6.75098 0.8,-2.358 2.716498,-8.859016 1.759498,-9.987016 C 50.638534,63.033494 9.64,64.714 9.64,64.714 c 0,0 -2.928,0.2 -4.382,-1.38 C 3.907,61.865 3.236,58.395 3.236,58.395 z"
   id="path26"
   sodipodi:nodetypes="csccscsscsc" /><path
   style="fill:url(#linearGradient3018)"
   d="M 51.942905,26.063992 57.394415,23.462968 116.945,54.961 c 0,0 2.022,1.518 -0.506,2.528 -2.526,1.011 -67.688572,23.727455 -67.688572,23.727455 l 3.192477,-55.152463 z"
   id="path41"
   sodipodi:nodetypes="cccscc" /><path
   style="fill:url(#linearGradient3015)"
   d="m 49.18,82.389 c 0,0 66.071,-24.488 67.683,-25.09 1.621,-0.604 5.135,-1.801 5.197,-3.775 0.111,-3.474 1.265,4.093 -1.068,4.979 -1.91,0.725 -69.642,25.362 -69.642,25.362 0,0 -2.232,1.096 -4.739,1.073 l 0.042,-1.918 c 1.011,0 2.527,-0.631 2.527,-0.631 z"
   id="path48"
   sodipodi:nodetypes="cssscccc" /><path
   style="opacity:0.6;fill:#ffffff"
   enable-background="new    "
   d="m 5.575,47.314 c 0,0 0.3223902,-6.162595 0.2761695,-9.178678 -0.050187,-3.274864 1.4673562,-3.6877 1.4673562,-3.6877 l 42.5846453,0.150633 c 1.907451,0.0067 0.657854,-9.982513 1.308933,-16.324305 0.226638,-2.207549 54.176946,20.929913 54.450946,22.015913 0.346,1.374 -5.32756,4.616004 -15.990903,10.489692 -9.733529,5.36152 -23.674244,8.996228 -34.497131,11.559206 C 48.813297,63.721272 50.079415,61.118848 50.717,55.298 c 0,-1.69 -0.485,-3.55 -3.497,-5.708 C 43.724,47.083 33.967,47.098 29.463,47.189 23.745,47.302 5.575,47.314 5.575,47.314 z"
   id="path50"
   sodipodi:nodetypes="cscssssccscc" /><path
   style="opacity:0.7;fill:url(#linearGradient3011)"
   enable-background="new    "
   d="m 50.128,54.961 c 0,1.023 -0.83,1.854 -1.854,1.854 H 7.66 c -1.023,0 -1.854,-0.828 -1.854,-1.854 l 0,0 c 0,-1.023 0.83,-1.854 1.854,-1.854 h 40.614 c 1.024,0 1.854,0.831 1.854,1.854 l 0,0 z"
   id="path57" /><path
   style="opacity:0.7;fill:url(#linearGradient3008)"
   enable-background="new    "
   d="m 119.632,44.537 c 0.335,0.968 -0.776,2.23 -2.487,2.824 L 49.334,70.866 c -1.709,0.593 -3.367,0.29 -3.703,-0.679 l 0,0 c -0.334,-0.967 0.78,-2.23 2.488,-2.823 l 67.813,-23.506 c 1.709,-0.593 3.364,-0.289 3.7,0.679 l 0,0 z"
   id="path64" />
</svg>